<svg width="400" height="400">
    <g fill-rule="evenodd">
        <path d="M210.8 24.044c-9.091.654-13.502 1.17-16.427 1.921-1.635.42-6.303 1.323-10.373 2.007-8.684 1.457-15.639 3.404-29.2 8.173-9.213 3.241-14.831 5.671-24.6 10.645-16.352 8.326-20.302 10.555-27.2 15.351-.66.458-2.019 1.38-3.021 2.046a52.105 52.105 0 00-3.4 2.504 586.41 586.41 0 01-5.787 4.608c-2.314 1.825-4.59 3.673-5.056 4.109-.467.436-2.353 2.142-4.192 3.792-3.826 3.432-10.036 10.088-13.468 14.434-1.288 1.631-2.642 3.213-3.009 3.515-.367.302-.667.778-.667 1.058 0 .279-.585 1.112-1.3 1.851-1.192 1.23-2.414 2.97-5.7 8.117a180.86 180.86 0 01-2.477 3.752c-.702 1.03-1.813 2.991-2.468 4.358-.655 1.366-1.642 3.076-2.192 3.8-.551.723-1.403 2.395-1.893 3.715-.489 1.32-1.404 3.316-2.032 4.436-.628 1.12-1.57 3.28-2.094 4.8-.523 1.52-1.404 3.664-1.958 4.764-.553 1.1-1.404 3.44-1.889 5.2-.486 1.76-1.324 4.253-1.862 5.541-.539 1.287-1.431 4.617-1.982 7.4a301.99 301.99 0 01-2.159 9.859c-1.348 5.599-1.788 8.846-2.383 17.6-.239 3.52-.62 8.974-.845 12.119-.282 3.929-.28 7.185.005 10.4.228 2.575.603 7.725.833 11.446.435 7.047 1.357 14.772 2.007 16.835.208.66 1.092 4.649 1.964 8.865.872 4.215 2.037 8.737 2.589 10.049.552 1.311 1.399 3.982 1.884 5.935.484 1.953 1.466 4.901 2.181 6.551.716 1.65 1.605 4.08 1.975 5.4.37 1.32 1.112 3.082 1.65 3.915.537.833 1.506 2.888 2.152 4.566.646 1.677 1.631 3.741 2.19 4.584.558.844 1.387 2.527 1.841 3.741.454 1.214 1.248 2.709 1.765 3.324.517.614 1.413 2.185 1.99 3.49.577 1.304 1.445 2.791 1.928 3.304.484.513 1.6 2.066 2.48 3.452 2.79 4.392 5.601 8.378 6.922 9.813.703.764 1.278 1.527 1.278 1.696 0 1.443 17.491 18.884 22.035 21.971a46.765 46.765 0 012.86 2.133c1.775 1.465 7.656 5.245 10.105 6.497 1.1.562 2.771 1.55 3.713 2.196.942.645 2.951 1.685 4.466 2.309 1.515.625 3.534 1.584 4.487 2.131.954.547 2.184 1.126 2.734 1.287.55.16 2.89 1.15 5.2 2.2 2.31 1.049 5.01 2.124 6 2.387.99.264 3.02.997 4.511 1.629s4.911 1.717 7.6 2.413c2.689.695 5.541 1.593 6.338 1.995.796.402 4.306 1.294 7.8 1.983 3.493.688 7.431 1.593 8.751 2.009 2.879.908 22.245 3.779 31.2 4.625 4.833.457 9.878.562 20.6.431 14.709-.181 16.923-.369 31.6-2.685 9.674-1.527 10.578-1.704 13.177-2.588 1.443-.49 4.513-1.293 6.823-1.786 2.31-.492 5.64-1.487 7.4-2.212 1.76-.725 4.37-1.637 5.8-2.028 1.43-.391 3.678-1.245 4.995-1.9a63.76 63.76 0 014.8-2.098c4.174-1.577 16.274-8.065 19.605-10.513.88-.646 2.14-1.45 2.8-1.785 3.105-1.578 11.72-8.416 17.151-13.611a73.887 73.887 0 012.744-2.494c.633-.532 3.124-3.176 5.535-5.874 2.412-2.699 4.894-5.447 5.516-6.107.621-.66 1.464-1.74 1.873-2.4.408-.66 1.411-1.944 2.228-2.854.817-.91 1.793-2.26 2.169-3 .376-.74 1.265-2.066 1.975-2.946.71-.88 1.612-2.23 2.005-3 .393-.77 1.21-1.969 1.815-2.664.606-.695 1.681-2.405 2.389-3.8.709-1.395 1.618-2.999 2.021-3.565.403-.566 1.17-2.192 1.706-3.614.535-1.422 1.424-3.479 1.976-4.571.552-1.092 1.571-4.146 2.265-6.786.694-2.64 1.795-6.42 2.447-8.4.705-2.142 1.499-5.958 1.96-9.421.426-3.202 1.053-6.622 1.394-7.6.619-1.779.905-8.386.338-7.819-.161.161-.567 1.046-.902 1.967-.438 1.203-.976 1.842-1.914 2.273-1.185.545-1.418.968-2.54 4.6-.68 2.2-1.758 4.945-2.397 6.1-.638 1.155-1.616 3.31-2.173 4.79-.557 1.479-1.53 3.504-2.162 4.5-.632.995-1.707 2.97-2.388 4.388-.681 1.418-1.564 2.948-1.963 3.4-.399.452-1.484 2.082-2.411 3.622-1.845 3.065-3.858 5.846-5.356 7.4a16.35 16.35 0 00-1.718 2.2c-1.055 1.677-8.056 9.307-11.491 12.521-1.574 1.474-3.408 3.224-4.077 3.891-.668.666-1.935 1.739-2.815 2.383-.88.645-1.96 1.582-2.4 2.083-2.139 2.434-16.637 11.893-24 15.658-11.383 5.821-29.746 12.71-39.519 14.827-2.155.466-6.385 1.471-9.4 2.232-3.014.761-7.821 1.655-10.681 1.986-2.86.332-8.26 1.006-12 1.498-5.779.761-8.662.896-19.2.898l-12.4.003-11.716-1.701c-6.471-.94-13.096-2.13-14.8-2.659a233.7 233.7 0 00-6.284-1.831c-16.366-4.475-32.316-13.82-44.525-26.085-6.788-6.819-7.578-7.775-12.325-14.904-.585-.88-1.744-2.605-2.574-3.834-.831-1.228-1.995-3.388-2.589-4.8-.593-1.411-1.397-3.016-1.786-3.566-2.056-2.906-7.414-18.714-9.17-27.053-2.157-10.245-3.32-28.347-2.463-38.347.677-7.888 1.97-19.164 2.399-20.92 2.078-8.489 4.303-16.356 5.227-18.48.622-1.43 1.418-3.58 1.77-4.778 2.401-8.179 12.444-25.529 18.709-32.321 17.951-19.458 33.14-25.704 62.503-25.7 6.15.001 9.91.273 22.224 1.609 4.146.449 9.405 1.472 10.477 2.037.372.196 3.059.99 5.97 1.766 2.912.775 5.847 1.747 6.524 2.159.676.413 2.849 1.318 4.829 2.012 1.98.693 4.41 1.743 5.4 2.332.99.589 3.137 1.66 4.77 2.379 1.634.719 3.254 1.543 3.6 1.83.616.511 7.657 4.025 15.23 7.602 2.633 1.243 5.765 2.267 10.2 3.334l6.4 1.539 8.6-.027c10.726-.034 23.69-1.933 30.4-4.454a133.86 133.86 0 015.8-1.981c1.76-.553 3.874-1.441 4.697-1.975.824-.534 2.524-1.425 3.78-1.98 1.255-.555 2.918-1.498 3.696-2.096a52.17 52.17 0 013.03-2.121c4.099-2.622 9.75-9.418 12.611-15.166 3.171-6.371 2.784-24.752-.682-32.4a96.572 96.572 0 01-1.913-4.611c-1.891-4.977-10.362-15.03-18.087-21.464-4.963-4.134-11.11-8.604-14.532-10.57-1.43-.821-3.076-1.82-3.657-2.221-3.091-2.128-21.602-11.134-22.885-11.134-.141 0-1.396-.539-2.789-1.197-1.393-.658-3.958-1.552-5.701-1.986-1.742-.434-4.698-1.318-6.568-1.963-1.87-.645-6.64-1.842-10.6-2.659-3.96-.818-7.299-1.544-7.419-1.614-2.973-1.737-31.457-3.096-44.781-2.137m21.4 7.539c8.458.547 14.66 1.371 21.107 2.803 2.911.646 7.005 1.448 9.098 1.78 2.092.333 5.422 1.074 7.4 1.648 1.977.574 5.818 1.572 8.536 2.218 2.718.647 6.048 1.608 7.4 2.137 1.352.53 4.079 1.441 6.059 2.027 3.959 1.171 12.51 4.961 14.4 6.383.66.496 1.778 1.2 2.485 1.564 4.716 2.429 18.387 13.729 23.953 19.798 5.979 6.521 4.266 13.494-4.632 18.859l-2.985 1.8-4.011-.01c-4.286-.011-4.693-.155-13.21-4.662-5.246-2.776-8.783-4.768-9.351-5.265-.357-.314-1.459-.977-2.449-1.474-.99-.498-2.946-1.689-4.347-2.647-1.4-.958-2.728-1.742-2.951-1.742-.223 0-1.498-.746-2.834-1.658-1.336-.912-3.158-1.983-4.049-2.379-.89-.396-2.249-1.193-3.019-1.772-.77-.578-2.562-1.584-3.982-2.233-1.42-.65-2.885-1.456-3.256-1.792-.67-.607-6.385-3.643-10.962-5.824-1.32-.629-3.03-1.507-3.8-1.951-2.896-1.67-13.002-6.257-14.6-6.627-.66-.152-2.91-.958-5-1.791-7.06-2.811-20.146-4.982-39.6-6.567-19.8-1.614-17.771-1.185-18.597-3.931-.717-2.382-.024-3.012 4.694-4.259a852.55 852.55 0 007.503-2.033c10.461-2.889 22.535-3.596 41-2.4" fill="#e26324"/>
        <path d="M206.6 5.995c-1.32.178-3.778.691-5.463 1.139-1.684.448-5.194 1.009-7.8 1.248-7.515.687-13.787 1.634-14.698 2.217-1.193.765-4.712 1.683-8.439 2.202-3.903.543-5.462.981-7.8 2.192-.99.512-3.563 1.302-5.717 1.756-2.154.453-4.336 1.055-4.849 1.337-.513.283-1.48.826-2.149 1.206-.668.381-2.96 1.146-5.092 1.7-2.322.603-4.325 1.384-4.994 1.948-.615.517-2.712 1.434-4.659 2.036-1.947.602-3.99 1.511-4.54 2.019-.55.508-2.5 1.416-4.333 2.018-1.834.602-3.814 1.494-4.4 1.981-.587.488-2.327 1.382-3.867 1.987-1.54.605-3.25 1.514-3.8 2.02-.55.505-2.272 1.455-3.826 2.11-1.555.655-3.29 1.618-3.857 2.14-.567.522-1.905 1.257-2.974 1.633-1.069.377-2.555 1.246-3.303 1.932-.748.687-2.453 1.778-3.789 2.425-1.336.647-2.568 1.425-2.738 1.728-.17.304-1.345 1.133-2.611 1.844-1.266.71-3.078 2.001-4.026 2.87-.948.868-2.298 1.818-3 2.112-.702.294-1.684 1.087-2.183 1.763-.499.676-1.467 1.518-2.151 1.872-.684.354-1.935 1.302-2.781 2.107-.845.804-2.556 2.363-3.801 3.463-4.106 3.628-15.379 15.076-15.969 16.217-.318.616-1.126 1.509-1.794 1.985-.668.476-1.578 1.577-2.022 2.448-.444.87-1.25 1.784-1.791 2.03-.591.269-1.368 1.288-1.946 2.55-.529 1.156-1.341 2.304-1.803 2.551-.462.248-1.47 1.699-2.238 3.226-.769 1.526-1.835 3.062-2.369 3.412-.535.35-1.251 1.456-1.593 2.459-.341 1.002-1.187 2.402-1.879 3.11-.693.708-1.703 2.35-2.244 3.65-.542 1.299-1.474 2.902-2.071 3.562-.598.66-1.486 2.489-1.975 4.064-.548 1.765-1.324 3.299-2.024 4-.8.801-1.338 1.983-1.824 4.004-.382 1.593-1.275 3.779-2.008 4.916-.874 1.358-1.611 3.314-2.188 5.811-.504 2.182-1.299 4.396-1.89 5.267-.726 1.071-1.336 3.063-2.116 6.921-.602 2.979-1.556 6.407-2.119 7.617-.769 1.652-1.235 3.843-1.872 8.8-.83 6.458-1.574 10.583-2.633 14.6-1.074 4.072-1.515 14.301-1.248 29 .269 14.852.346 15.75 1.975 23.2.553 2.53 1.409 7.93 1.902 12 .502 4.147 1.146 7.808 1.465 8.328.981 1.6 1.649 3.912 2.528 8.749.554 3.046 1.251 5.455 1.997 6.901.631 1.222 1.524 3.752 1.983 5.622.46 1.87 1.043 3.76 1.297 4.2 1.255 2.18 2.289 4.679 3.047 7.365.469 1.662 1.263 3.42 1.805 4 .532.569 1.435 2.408 2.007 4.087.572 1.679 1.537 3.585 2.145 4.236.609.651 1.508 2.428 1.999 3.948.573 1.774 1.322 3.167 2.091 3.89.659.619 1.386 1.825 1.616 2.679.23.854 1.195 2.463 2.145 3.575.95 1.113 1.971 2.762 2.268 3.664.298.902.968 1.919 1.489 2.26.52.341 1.368 1.448 1.882 2.458.515 1.011 1.407 2.278 1.983 2.815.576.537 1.629 1.886 2.34 2.997.71 1.111 1.846 2.507 2.522 3.103.677.596 1.54 1.768 1.917 2.606.378.837 1.221 1.828 1.873 2.203.653.375 1.56 1.313 2.016 2.085.455.772 1.448 1.786 2.206 2.255.757.468 1.646 1.371 1.974 2.006.329.635 1.135 1.433 1.792 1.772.658.34 1.669 1.333 2.247 2.207.578.874 1.289 1.589 1.58 1.589.291 0 1.543.99 2.783 2.2 1.239 1.21 2.415 2.2 2.613 2.2.198 0 1.348.894 2.554 1.986 1.206 1.093 2.873 2.34 3.704 2.773.831.432 2.002 1.318 2.602 1.968.6.65 1.59 1.306 2.2 1.458 1.022.256 3.153 1.649 4.447 2.91.704.685 2.4 1.53 3.693 1.839.567.136 1.536.715 2.154 1.287.617.572 2.479 1.562 4.138 2.201 1.659.639 3.48 1.593 4.047 2.12.571.531 2.589 1.436 4.527 2.031 1.923.59 3.993 1.48 4.6 1.977 1.294 1.06 2.881 1.711 5.103 2.092 2.381.409 4.674 1.288 5.589 2.144.477.446 2.83 1.253 5.711 1.959 2.695.661 5.398 1.555 6.006 1.988 1.013.721 3.481 1.335 9.864 2.453 1.303.228 3.463.937 4.8 1.574 2.021.964 3.641 1.307 9.63 2.039 3.96.485 8.19 1.232 9.4 1.661 3.449 1.222 4.672 1.461 9.8 1.911 17.508 1.536 36.979 2.023 49.092 1.228 17.706-1.162 22.369-1.663 24.171-2.598 1.595-.828 5.36-1.667 11.689-2.605 4.436-.658 6.083-1.073 7.2-1.811.955-.632 3.107-1.288 6.316-1.927 3.509-.698 5.24-1.246 6.2-1.964 1.445-1.08 2.889-1.596 6.406-2.291 1.37-.27 2.836-.895 3.687-1.572 1.539-1.223 2.367-1.581 6.125-2.645 1.367-.387 2.878-1.122 3.357-1.632.48-.51 2.117-1.404 3.638-1.985 1.521-.581 3.333-1.575 4.027-2.209.694-.634 2.092-1.428 3.107-1.765 1.015-.337 2.437-1.223 3.16-1.97.724-.746 2.374-1.831 3.667-2.412 1.294-.58 2.528-1.383 2.743-1.784.214-.401 1.25-1.132 2.302-1.625 1.052-.493 2.563-1.551 3.357-2.35.794-.8 2.38-2.174 3.525-3.054 4.824-3.71 5.518-4.281 7.28-5.998 1.017-.991 2.049-1.802 2.295-1.802.245 0 .897-.715 1.449-1.589.551-.873 1.522-1.857 2.157-2.185.634-.328 1.532-1.237 1.993-2.02.462-.783 1.474-1.797 2.249-2.254.774-.457 1.408-1.081 1.408-1.386 0-.306.855-1.451 1.9-2.545 3.311-3.466 5.543-6.154 6.995-8.421.775-1.21 1.81-2.56 2.3-3 .49-.44 1.161-1.476 1.492-2.301.331-.826 1.107-1.928 1.726-2.448.618-.521 1.753-2.196 2.522-3.722.769-1.526 1.702-3.027 2.073-3.336.372-.309 1.08-1.468 1.573-2.577.493-1.109 1.644-3.169 2.557-4.578.914-1.409 1.662-2.883 1.662-3.276 0-.392.801-2.3 1.78-4.238.98-1.938 2.248-5.324 2.819-7.524.57-2.2 1.393-4.72 1.828-5.6.435-.88 1.169-3.76 1.63-6.4.461-2.64 1.288-6.6 1.837-8.8 1.698-6.809 1.746-7.67 1.969-35.597.238-29.926-.018-36.364-1.673-42.075-.524-1.811-1.233-5.296-1.575-7.745-.765-5.483-1.298-7.663-2.443-9.983-.489-.99-1.369-3.678-1.956-5.973-.68-2.658-1.42-4.591-2.038-5.326-.534-.635-1.346-2.39-1.805-3.9-.459-1.511-1.316-3.282-1.904-3.937-1.724-1.919-3.269-4.151-3.269-4.723 0-.292-.675-.963-1.5-1.491-.825-.527-2.04-1.532-2.7-2.232-.66-.7-2.14-1.811-3.289-2.468-4.219-2.415-5.132-8.62-1.562-10.617.351-.197 1.602-3.321 2.859-7.14l2.235-6.79.224-6.602c.274-8.108-.254-13.995-1.619-18.037-.564-1.67-1.414-4.82-1.89-7-.558-2.557-1.398-4.957-2.368-6.764-.827-1.54-1.725-3.52-1.996-4.4-.271-.88-.799-1.96-1.174-2.4-1.146-1.346-3.22-4.708-3.22-5.221 0-.266-.632-.966-1.405-1.555-.772-.59-1.654-1.67-1.96-2.402-.306-.731-1.13-1.666-1.833-2.076-.702-.41-1.575-1.32-1.939-2.021-.365-.701-1.28-1.691-2.033-2.2-.754-.509-1.666-1.465-2.028-2.125-.361-.66-1.325-1.519-2.142-1.909-.817-.39-1.699-1.179-1.961-1.752-.285-.625-1.165-1.339-2.201-1.783-1.041-.446-1.998-1.223-2.412-1.959-.377-.671-1.12-1.331-1.651-1.468-.531-.137-2.099-1.211-3.486-2.387s-3.322-2.528-4.301-3.004c-.98-.475-2.006-1.286-2.282-1.801-.276-.517-1.107-1.104-1.852-1.31-1.785-.493-4.763-2.256-5.043-2.986-.122-.319-1.35-.991-2.727-1.494-1.378-.502-3.068-1.407-3.757-2.012-.688-.604-2.652-1.556-4.364-2.115-1.757-.574-3.698-1.53-4.457-2.196-1.277-1.121-3.527-2.017-5.079-2.022-1.073-.003-3.417-1.072-4.678-2.133-.754-.634-2.276-1.171-4.662-1.645-2.048-.407-4.64-1.266-6.145-2.036-1.431-.733-3.727-1.525-5.102-1.76l-5-.857c-1.375-.236-3.461-.863-4.635-1.394-2.326-1.051-7.136-1.965-12.465-2.368-5.239-.396-8.808-1.017-11-1.913-2.176-.889-33.248-1.45-38.8-.701m32.682 18.196c7.259.483 15.427 1.481 16.299 1.99.12.07 3.459.796 7.419 1.614 3.96.817 8.73 2.014 10.6 2.659 1.87.645 4.826 1.529 6.568 1.963 1.743.434 4.308 1.328 5.701 1.986 1.393.658 2.648 1.197 2.789 1.197 1.283 0 19.794 9.006 22.885 11.134.581.401 2.227 1.4 3.657 2.221 3.422 1.966 9.569 6.436 14.532 10.57 7.725 6.434 16.196 16.487 18.087 21.464a96.572 96.572 0 001.913 4.611c3.466 7.648 3.853 26.029.682 32.4-2.861 5.748-8.512 12.544-12.611 15.166a52.17 52.17 0 00-3.03 2.121c-.778.598-2.441 1.541-3.696 2.096-1.256.555-2.956 1.446-3.78 1.98-.823.534-2.937 1.422-4.697 1.975a133.86 133.86 0 00-5.8 1.981c-6.71 2.521-19.674 4.42-30.4 4.454l-8.6.027-6.4-1.539c-4.435-1.067-7.567-2.091-10.2-3.334-7.573-3.577-14.614-7.091-15.23-7.602-.346-.287-1.966-1.111-3.6-1.83-1.633-.719-3.78-1.79-4.77-2.379-.99-.589-3.42-1.639-5.4-2.332-1.98-.694-4.153-1.599-4.829-2.012-.677-.412-3.612-1.384-6.524-2.159-2.911-.776-5.598-1.57-5.97-1.766-2.854-1.504-22.054-3.645-32.701-3.646-29.363-.004-44.552 6.242-62.503 25.7-6.265 6.792-16.308 24.142-18.709 32.321-.352 1.198-1.148 3.348-1.77 4.778-.924 2.124-3.149 9.991-5.227 18.48-.429 1.756-1.722 13.032-2.399 20.92-.857 10 .306 28.102 2.463 38.347 1.756 8.339 7.114 24.147 9.17 27.053.389.55 1.193 2.155 1.786 3.566.594 1.412 1.758 3.572 2.589 4.8.83 1.229 1.989 2.954 2.574 3.834 4.747 7.129 5.537 8.085 12.325 14.904 12.209 12.265 28.159 21.61 44.525 26.085a233.7 233.7 0 016.284 1.831c1.704.529 8.329 1.719 14.8 2.659l11.716 1.701 12.4-.003c10.538-.002 13.421-.137 19.2-.898 3.74-.492 9.14-1.166 12-1.498 2.86-.331 7.667-1.225 10.681-1.986 3.015-.761 7.245-1.766 9.4-2.232 9.773-2.117 28.136-9.006 39.519-14.827 7.363-3.765 21.861-13.224 24-15.658.44-.501 1.52-1.438 2.4-2.083.88-.644 2.147-1.717 2.815-2.383.669-.667 2.503-2.417 4.077-3.891 3.435-3.214 10.436-10.844 11.491-12.521a16.35 16.35 0 011.718-2.2c1.498-1.554 3.511-4.335 5.356-7.4.927-1.54 2.012-3.17 2.411-3.622.399-.452 1.282-1.982 1.963-3.4s1.756-3.393 2.388-4.388c.632-.996 1.605-3.021 2.162-4.5.557-1.48 1.535-3.635 2.173-4.79.639-1.155 1.717-3.9 2.397-6.1 1.122-3.632 1.355-4.055 2.54-4.6.938-.431 1.476-1.07 1.914-2.273.335-.921.741-1.806.902-1.967.567-.567.281 6.04-.338 7.819-.341.978-.968 4.398-1.394 7.6-.461 3.463-1.255 7.279-1.96 9.421-.652 1.98-1.753 5.76-2.447 8.4-.694 2.64-1.713 5.694-2.265 6.786-.552 1.092-1.441 3.149-1.976 4.571-.536 1.422-1.303 3.048-1.706 3.614-.403.566-1.312 2.17-2.021 3.565-.708 1.395-1.783 3.105-2.389 3.8-.605.695-1.422 1.894-1.815 2.664-.393.77-1.295 2.12-2.005 3-.71.88-1.599 2.206-1.975 2.946-.376.74-1.352 2.09-2.169 3-.817.91-1.82 2.194-2.228 2.854-.409.66-1.252 1.74-1.873 2.4-.622.66-3.104 3.408-5.516 6.107-2.411 2.698-4.902 5.342-5.535 5.874a73.887 73.887 0 00-2.744 2.494c-5.431 5.195-14.046 12.033-17.151 13.611-.66.335-1.92 1.139-2.8 1.785-3.331 2.448-15.431 8.936-19.605 10.513a63.76 63.76 0 00-4.8 2.098c-1.317.655-3.565 1.509-4.995 1.9-1.43.391-4.04 1.303-5.8 2.028-1.76.725-5.09 1.72-7.4 2.212-2.31.493-5.38 1.296-6.823 1.786-2.599.884-3.503 1.061-13.177 2.588-24.659 3.891-43.179 3.896-69.8.018-6.16-.897-12.28-1.972-13.6-2.389-1.32-.416-5.258-1.321-8.751-2.009-3.494-.689-7.004-1.581-7.8-1.983-.797-.402-3.649-1.3-6.338-1.995-2.689-.696-6.109-1.781-7.6-2.413-1.491-.632-3.521-1.365-4.511-1.629-.99-.263-3.69-1.338-6-2.387-2.31-1.05-4.65-2.04-5.2-2.2-.55-.161-1.78-.74-2.734-1.287-.953-.547-2.972-1.506-4.487-2.131-1.515-.624-3.524-1.664-4.466-2.309-.942-.646-2.613-1.634-3.713-2.196-2.449-1.252-8.33-5.032-10.105-6.497a46.765 46.765 0 00-2.86-2.133c-4.544-3.087-22.035-20.528-22.035-21.971 0-.169-.575-.932-1.278-1.696-1.321-1.435-4.132-5.421-6.922-9.813-.88-1.386-1.996-2.939-2.48-3.452-.483-.513-1.351-2-1.928-3.304-.577-1.305-1.473-2.876-1.99-3.49-.517-.615-1.311-2.11-1.765-3.324-.454-1.214-1.283-2.897-1.841-3.741-.559-.843-1.544-2.907-2.19-4.584-.646-1.678-1.615-3.733-2.152-4.566-.538-.833-1.28-2.595-1.65-3.915-.37-1.32-1.259-3.75-1.975-5.4-.715-1.65-1.697-4.598-2.181-6.551-.485-1.953-1.332-4.624-1.884-5.935-.552-1.312-1.717-5.834-2.589-10.049-.872-4.216-1.756-8.205-1.964-8.865-.65-2.063-1.572-9.788-2.007-16.835-.23-3.721-.605-8.871-.833-11.446-.285-3.215-.287-6.471-.005-10.4.225-3.145.606-8.599.845-12.119.595-8.754 1.035-12.001 2.383-17.6a301.99 301.99 0 002.159-9.859c.551-2.783 1.443-6.113 1.982-7.4.538-1.288 1.376-3.781 1.862-5.541.485-1.76 1.336-4.1 1.889-5.2.554-1.1 1.435-3.244 1.958-4.764.524-1.52 1.466-3.68 2.094-4.8.628-1.12 1.543-3.116 2.032-4.436.49-1.32 1.342-2.992 1.893-3.715.55-.724 1.537-2.434 2.192-3.8.655-1.367 1.766-3.328 2.468-4.358a180.86 180.86 0 002.477-3.752c3.286-5.147 4.508-6.887 5.7-8.117.715-.739 1.3-1.572 1.3-1.851 0-.28.3-.756.667-1.058.367-.302 1.721-1.884 3.009-3.515 3.432-4.346 9.642-11.002 13.468-14.434a498.945 498.945 0 004.192-3.792c.466-.436 2.742-2.284 5.056-4.109a586.41 586.41 0 005.787-4.608 52.105 52.105 0 013.4-2.504A225.35 225.35 0 00103 62.141c6.898-4.796 10.848-7.025 27.2-15.351 9.769-4.974 15.387-7.404 24.6-10.645 13.561-4.769 20.516-6.716 29.2-8.173 4.07-.684 8.738-1.587 10.373-2.007 7.931-2.038 28.659-2.857 44.909-1.774M197 136.833c5.409.425 10.083 1.288 11.8 2.18.55.285 3.048.984 5.551 1.553 2.738.622 5.368 1.501 6.6 2.204 1.127.644 2.949 1.391 4.049 1.659 2.331.57 4.641 1.656 5.358 2.52.277.334 1.435.912 2.573 1.284 2.626.859 4.78 1.937 5.427 2.716.277.334 1.435.915 2.573 1.29 2.303.761 3.469 1.416 5.326 2.993.691.587 2.221 1.294 3.4 1.571 2.45.577 4.185 1.364 5.356 2.432.494.45 2.694 1.148 5.6 1.775 2.641.571 5.513 1.459 6.406 1.982 4.509 2.638 34.898 2.459 41.654-.247 1.609-.644 4.391-1.349 6.219-1.576 5.138-.637 8.628-1.458 9.827-2.312 1.074-.764 2.81-1.387 7.329-2.631 1.236-.34 2.484-.903 2.773-1.251.666-.803 2.794-1.874 5.444-2.741 1.136-.371 2.162-.926 2.28-1.234.752-1.961 5.238-2.204 7.383-.399 1.456 1.225 1.915 2.834 2.624 9.2.466 4.189.814 5.695 1.792 7.754.667 1.406 1.307 3.476 1.423 4.6.116 1.125.495 5.195.843 9.045.348 3.85.833 8.35 1.077 10 .774 5.229.869 19.607.162 24.6-.342 2.42-.906 7.19-1.252 10.6-.767 7.55-1.157 9.362-2.431 11.307-.593.906-1.3 3.029-1.771 5.316-.814 3.959-1.015 4.487-2.586 6.801-.521.768-1.142 2.306-1.38 3.417-.512 2.387-.967 3.323-2.443 5.022-.604.695-1.393 2.155-1.755 3.243-.361 1.089-1.118 2.41-1.682 2.937-.564.526-1.527 2.061-2.141 3.411-.643 1.415-1.64 2.842-2.354 3.369-.681.504-1.435 1.512-1.675 2.241-.241.73-1.03 1.823-1.754 2.431-.723.608-1.549 1.555-1.835 2.105-1.144 2.2-9.96 11.56-12.99 13.791-.88.648-2.447 1.951-3.483 2.894-1.035.943-2.148 1.715-2.473 1.715-.324 0-.977.544-1.45 1.209-.474.665-1.611 1.589-2.528 2.053-.916.463-2.232 1.421-2.923 2.127-.692.706-2.312 1.702-3.6 2.213-1.289.511-2.703 1.353-3.143 1.87-.44.517-2.013 1.377-3.494 1.911-1.482.534-3.372 1.495-4.2 2.136-.829.641-2.766 1.576-4.306 2.078-1.54.501-3.302 1.332-3.916 1.845-.97.811-5.756 2.558-7.008 2.558-.24 0-1.661.628-3.156 1.396-1.563.802-4.081 1.659-5.92 2.013-1.76.34-4.266 1.155-5.568 1.811-1.789.901-3.699 1.394-7.8 2.017-2.988.453-7.103 1.349-9.145 1.991-3.638 1.144-5.997 1.493-16.087 2.384-16.965 1.497-41.405.369-47.598-2.197-1.211-.501-4.362-1.306-7.002-1.789-3.323-.606-5.423-1.225-6.824-2.011-1.113-.625-3.29-1.513-4.839-1.974-1.548-.461-3.428-1.285-4.176-1.831-1.603-1.168-3.071-1.898-5.626-2.795-1.026-.36-2.297-1.086-2.824-1.613-.527-.527-1.883-1.423-3.014-1.991-1.131-.568-2.388-1.455-2.795-1.972-.406-.517-1.51-1.333-2.453-1.814-.943-.481-1.993-1.359-2.333-1.95-.34-.591-1.179-1.345-1.864-1.675-.684-.33-1.654-1.216-2.154-1.968-.501-.752-1.45-1.696-2.109-2.097-.66-.401-1.481-1.321-1.826-2.043-.344-.723-1.141-1.609-1.77-1.97s-1.537-1.428-2.018-2.371c-.481-.943-1.309-2.056-1.841-2.474-.531-.418-1.569-1.956-2.306-3.419-.737-1.462-1.724-3.005-2.193-3.428-.47-.424-1.12-1.684-1.446-2.8-.559-1.915-.979-2.711-2.714-5.148-.399-.56-1.141-2.658-1.649-4.662-.508-2.005-1.21-3.961-1.56-4.347-.99-1.094-1.743-3.25-2.052-5.873-.564-4.801-1.446-9.24-2.184-11-2.574-6.137-2.576-35.751-.003-41.548.468-1.055 1.157-4.263 1.6-7.452 1.023-7.353 1.065-7.529 2.227-9.242.549-.808 1.277-2.659 1.619-4.113.343-1.455.813-3.44 1.046-4.411.232-.972.898-2.322 1.48-3 .603-.703 1.374-2.425 1.793-4.003.492-1.857 1.156-3.239 2.018-4.2.706-.787 1.421-1.881 1.589-2.431.592-1.943 2.144-4.606 2.976-5.109.464-.28 1.271-1.477 1.795-2.661.584-1.322 1.277-2.255 1.797-2.42.466-.147 1.115-.911 1.443-1.697.756-1.807 7.065-8.719 9.206-10.083.889-.567 2.252-1.667 3.029-2.445.777-.779 2.164-1.641 3.084-1.916.919-.276 1.671-.677 1.671-.891 0-.651 2.433-1.937 5.6-2.958 1.65-.533 3.72-1.322 4.6-1.755 4.297-2.112 22.132-2.878 38-1.632" fill="#ad3d1d"/>
        <path d="M207.281 31.393c-7.903.645-10.622 1.082-16.081 2.59a852.55 852.55 0 01-7.503 2.033c-4.718 1.247-5.411 1.877-4.694 4.259.826 2.746-1.203 2.317 18.597 3.931 19.454 1.585 32.54 3.756 39.6 6.567 2.09.833 4.34 1.639 5 1.791 1.598.37 11.704 4.957 14.6 6.627.77.444 2.48 1.322 3.8 1.951 4.577 2.181 10.292 5.217 10.962 5.824.371.336 1.836 1.142 3.256 1.792 1.42.649 3.212 1.655 3.982 2.233.77.579 2.129 1.376 3.019 1.772.891.396 2.713 1.467 4.049 2.379 1.336.912 2.611 1.658 2.834 1.658.223 0 1.551.784 2.951 1.742 1.401.958 3.357 2.149 4.347 2.647.99.497 2.092 1.16 2.449 1.474.568.497 4.105 2.489 9.351 5.265 8.517 4.507 8.924 4.651 13.21 4.662l4.011.01 2.985-1.8c8.898-5.365 10.611-12.338 4.632-18.859-5.566-6.069-19.237-17.369-23.953-19.798a21.04 21.04 0 01-2.485-1.564c-1.89-1.422-10.441-5.212-14.4-6.383-1.98-.586-4.707-1.497-6.059-2.027-1.352-.529-4.682-1.49-7.4-2.137-2.718-.646-6.559-1.644-8.536-2.218-1.978-.574-5.308-1.315-7.4-1.648-2.093-.332-6.187-1.134-9.098-1.78-12.452-2.766-32.685-4.082-46.026-2.993" fill="#fbd704"/>
    </g>
</svg>
