<svg id="svg" version="1.1" xmlns="http://www.w3.org/2000/svg" xmlns:xlink="http://www.w3.org/1999/xlink" width="400" height="396.15384615384613" viewBox="0, 0, 400,396.15384615384613">
    <g id="svgg">
        <path id="path0" d="M0.000 16.452 L 0.000 32.904 0.991 32.904 C 1.767 32.904,1.982 32.702,1.982 31.973 C 1.982 30.437,3.247 29.371,5.246 29.220 C 5.657 29.189,6.117 28.634,6.372 27.861 C 6.831 26.469,7.536 25.927,9.303 25.606 C 9.909 25.496,10.437 25.354,10.476 25.290 C 12.013 22.778,12.701 22.312,15.454 21.914 C 17.446 21.626,18.619 21.111,18.889 20.408 C 19.315 19.297,21.227 18.677,26.209 18.035 C 28.910 17.687,31.566 17.162,32.111 16.867 C 34.352 15.658,41.667 14.655,52.674 14.047 C 55.371 13.899,58.486 13.665,59.595 13.529 L 61.613 13.280 59.746 11.531 C 57.472 9.400,57.475 9.541,59.663 7.490 C 62.306 5.012,62.122 4.757,57.681 4.757 L 53.915 4.757 53.915 2.379 L 53.915 0.000 26.957 0.000 L 0.000 0.000 0.000 16.452 M80.872 3.110 C 80.872 5.619,81.012 6.347,81.597 6.876 C 83.245 8.368,84.440 6.696,84.440 2.898 L 84.440 0.000 82.656 0.000 L 80.872 0.000 80.872 3.110 M300.099 0.991 L 300.099 1.982 311.596 1.982 L 323.092 1.982 323.092 0.991 L 323.092 0.000 311.596 0.000 L 300.099 0.000 300.099 0.991 M330.624 0.991 C 330.624 1.928,330.748 1.985,332.904 2.026 C 334.158 2.050,336.254 2.150,337.562 2.249 C 338.870 2.347,340.342 2.435,340.833 2.445 C 341.323 2.455,341.724 2.652,341.724 2.883 C 341.724 3.114,341.841 3.187,341.983 3.045 C 342.125 2.904,342.495 3.097,342.805 3.475 C 343.115 3.853,343.239 3.912,343.080 3.606 C 342.890 3.240,342.948 3.146,343.249 3.332 C 343.501 3.487,343.707 3.872,343.707 4.186 C 343.707 4.531,344.099 4.757,344.698 4.757 C 345.259 4.757,345.689 4.986,345.689 5.286 C 345.689 5.842,346.025 5.914,348.776 5.952 C 349.746 5.965,350.375 6.137,350.242 6.353 C 350.111 6.565,350.290 6.622,350.652 6.483 C 351.530 6.146,354.623 9.120,353.912 9.618 C 353.600 9.836,353.734 9.875,354.278 9.722 C 354.750 9.590,355.252 9.668,355.392 9.896 C 355.536 10.128,356.116 10.198,356.714 10.055 C 357.300 9.914,357.647 9.942,357.485 10.117 C 357.101 10.530,358.651 11.618,359.168 11.298 C 359.386 11.163,359.564 11.392,359.564 11.806 C 359.564 12.224,360.004 12.759,360.555 13.010 C 361.467 13.426,361.546 13.383,361.546 12.479 C 361.546 10.440,363.150 11.275,367.275 15.461 C 370.020 18.247,371.458 19.425,372.112 19.425 C 372.840 19.425,373.043 19.641,373.043 20.416 C 373.043 21.022,373.268 21.407,373.623 21.407 C 373.942 21.407,375.347 22.478,376.746 23.786 C 378.147 25.097,379.654 26.165,380.103 26.165 C 380.577 26.165,381.026 26.505,381.176 26.978 C 381.376 27.609,381.555 27.692,381.970 27.347 C 383.181 26.343,384.940 28.554,384.443 30.455 C 384.289 31.043,384.457 31.135,385.425 30.993 C 386.405 30.849,386.921 31.145,388.638 32.839 C 390.306 34.484,391.087 34.945,392.864 35.332 C 396.259 36.073,397.342 38.454,394.285 38.454 C 392.415 38.454,392.717 40.778,394.879 43.019 C 395.799 43.973,396.517 45.165,396.670 45.992 C 397.046 48.028,397.884 49.158,399.018 49.158 L 400.000 49.158 400.000 24.579 L 400.000 0.000 365.312 0.000 L 330.624 0.000 330.624 0.991 M89.395 5.206 C 88.959 5.423,88.282 6.036,87.890 6.567 L 87.178 7.532 90.387 7.532 L 93.595 7.532 92.883 6.568 C 92.312 5.795,90.646 4.658,90.269 4.784 C 90.225 4.799,89.832 4.989,89.395 5.206 M375.818 17.443 C 375.818 19.358,373.370 20.126,373.109 18.292 C 372.907 16.872,374.625 15.171,375.312 16.110 C 375.590 16.490,375.818 17.090,375.818 17.443 M303.469 29.354 C 302.379 29.519,299.257 29.855,296.531 30.101 C 287.650 30.904,279.026 32.343,277.367 33.298 C 276.679 33.695,274.063 34.508,271.556 35.104 C 269.049 35.700,266.283 36.595,265.411 37.093 C 264.539 37.590,262.309 38.475,260.456 39.059 C 258.603 39.643,256.462 40.517,255.699 41.002 C 254.936 41.487,252.884 42.393,251.140 43.017 C 249.395 43.640,247.498 44.534,246.924 45.004 C 246.349 45.474,244.655 46.365,243.158 46.984 C 241.661 47.603,239.990 48.500,239.445 48.976 C 238.900 49.453,237.432 50.301,236.184 50.862 C 234.935 51.422,233.241 52.416,232.418 53.071 C 231.595 53.726,230.469 54.372,229.916 54.506 C 229.363 54.641,228.136 55.364,227.190 56.112 C 226.244 56.861,224.467 57.958,223.241 58.552 C 222.014 59.145,220.775 59.953,220.488 60.348 C 220.200 60.742,219.130 61.492,218.109 62.013 C 217.089 62.535,215.673 63.485,214.963 64.124 C 214.253 64.764,212.743 65.794,211.607 66.412 C 210.471 67.030,209.128 68.027,208.623 68.628 C 208.118 69.228,207.085 69.924,206.327 70.174 C 205.569 70.424,204.765 70.974,204.539 71.395 C 204.313 71.817,203.391 72.628,202.490 73.196 C 200.775 74.279,196.761 77.457,194.043 79.885 C 191.694 81.983,191.526 82.049,188.503 82.055 C 185.611 82.061,181.667 80.649,180.443 79.169 C 180.152 78.818,178.908 78.238,177.679 77.881 C 175.144 77.144,172.448 75.858,172.448 75.386 C 172.448 75.212,170.840 74.577,168.875 73.976 C 166.909 73.375,164.813 72.483,164.216 71.994 C 163.620 71.505,161.709 70.690,159.970 70.182 C 158.232 69.674,156.002 68.763,155.015 68.157 C 154.028 67.552,152.018 66.778,150.547 66.438 C 147.561 65.748,145.232 64.857,144.316 64.055 C 143.981 63.761,142.012 63.137,139.941 62.667 C 137.869 62.198,135.104 61.296,133.796 60.663 C 132.488 60.030,129.299 59.049,126.711 58.483 C 124.122 57.917,121.268 57.093,120.368 56.652 C 119.468 56.211,116.056 55.322,112.785 54.676 C 109.514 54.031,105.590 53.074,104.063 52.551 C 102.537 52.027,97.988 51.116,93.954 50.526 C 89.921 49.936,85.639 49.188,84.440 48.863 C 80.574 47.817,79.078 47.615,70.488 46.973 C 65.842 46.625,60.347 46.177,58.276 45.976 C 45.093 44.696,32.021 46.209,28.423 49.430 C 27.593 50.172,26.508 50.965,26.011 51.191 C 22.772 52.667,21.691 63.119,24.276 67.967 C 25.774 70.778,33.126 78.460,36.571 80.813 C 37.607 81.521,38.454 82.256,38.454 82.448 C 38.454 82.639,39.452 83.284,40.671 83.881 C 41.891 84.478,43.095 85.301,43.347 85.710 C 43.599 86.120,45.109 87.084,46.702 87.852 C 48.295 88.620,49.700 89.513,49.824 89.837 C 49.949 90.161,51.085 90.948,52.349 91.586 C 53.629 92.232,54.760 93.099,54.900 93.541 C 55.039 93.978,55.922 94.675,56.862 95.091 C 57.802 95.507,59.263 96.459,60.108 97.208 C 60.953 97.956,62.270 98.944,63.033 99.405 C 63.796 99.865,64.955 100.802,65.610 101.486 C 66.264 102.171,67.370 103.002,68.067 103.334 C 68.765 103.666,69.800 104.545,70.367 105.289 C 70.934 106.032,71.664 106.640,71.990 106.640 C 72.315 106.640,73.421 107.401,74.447 108.330 C 75.473 109.260,77.205 110.633,78.295 111.382 C 79.386 112.130,80.412 112.960,80.576 113.226 C 80.740 113.492,81.755 114.251,82.832 114.914 C 83.908 115.576,84.984 116.483,85.222 116.928 C 85.461 117.373,86.347 118.090,87.191 118.521 C 88.035 118.952,89.060 119.728,89.468 120.247 C 89.876 120.766,90.692 121.443,91.281 121.752 C 91.871 122.060,93.204 123.056,94.244 123.964 C 97.136 126.488,100.156 128.907,102.140 130.287 C 103.126 130.974,104.197 131.913,104.520 132.374 C 104.843 132.835,105.803 133.567,106.653 134.001 C 107.504 134.435,108.394 135.154,108.633 135.599 C 108.871 136.045,109.930 136.941,110.986 137.591 C 112.042 138.240,112.999 139.015,113.113 139.311 C 113.227 139.608,114.590 140.702,116.141 141.743 C 118.537 143.350,121.221 145.990,122.234 147.735 C 122.718 148.569,119.718 153.845,118.276 154.696 C 117.551 155.124,116.576 156.153,116.109 156.983 C 115.642 157.814,114.821 158.728,114.284 159.016 C 113.747 159.303,112.969 160.202,112.556 161.012 C 112.142 161.823,111.266 162.804,110.609 163.192 C 109.952 163.580,109.316 164.207,109.196 164.585 C 109.076 164.963,108.484 165.801,107.880 166.447 C 107.276 167.094,106.190 168.307,105.467 169.143 C 101.208 174.070,99.950 175.490,98.617 176.875 C 97.802 177.723,96.868 178.932,96.542 179.563 C 96.216 180.194,95.407 181.096,94.744 181.568 C 94.082 182.040,93.190 183.111,92.763 183.949 C 92.335 184.787,91.623 185.588,91.179 185.728 C 90.736 185.869,90.037 186.640,89.626 187.442 C 89.214 188.244,88.399 189.346,87.814 189.891 C 87.229 190.436,85.954 191.997,84.980 193.360 C 84.007 194.722,83.077 195.837,82.913 195.837 C 82.750 195.837,82.118 196.625,81.509 197.589 C 80.900 198.552,79.889 199.797,79.262 200.356 C 78.634 200.915,77.758 202.083,77.315 202.952 C 76.872 203.821,76.153 204.723,75.719 204.955 C 75.284 205.188,74.590 206.041,74.176 206.852 C 73.763 207.662,73.026 208.682,72.539 209.118 C 72.051 209.554,70.972 210.985,70.139 212.298 C 69.307 213.612,68.177 215.076,67.630 215.552 C 67.082 216.028,66.268 217.136,65.820 218.015 C 65.371 218.893,64.570 219.897,64.039 220.245 C 63.507 220.593,62.884 221.443,62.654 222.134 C 62.423 222.824,61.647 224.014,60.929 224.777 C 60.210 225.540,59.039 227.189,58.327 228.440 C 57.615 229.692,56.683 230.961,56.257 231.259 C 55.831 231.558,55.037 232.726,54.492 233.855 C 53.947 234.985,53.245 236.007,52.931 236.127 C 52.617 236.248,51.654 237.635,50.789 239.210 C 49.925 240.784,48.923 242.318,48.562 242.617 C 48.201 242.916,47.494 243.975,46.989 244.970 C 46.485 245.965,45.682 247.131,45.206 247.562 C 44.729 247.992,43.885 249.304,43.331 250.477 C 42.776 251.650,41.833 253.171,41.236 253.857 C 40.640 254.543,39.760 255.996,39.281 257.086 C 38.803 258.176,37.986 259.514,37.467 260.059 C 36.947 260.605,35.993 262.232,35.346 263.677 C 34.700 265.121,33.831 266.548,33.416 266.848 C 33.001 267.148,32.236 268.452,31.716 269.745 C 31.197 271.038,30.279 272.656,29.678 273.341 C 29.077 274.026,28.220 275.555,27.774 276.738 C 27.057 278.641,26.657 279.377,24.983 281.863 C 24.763 282.190,24.217 283.470,23.770 284.708 C 23.324 285.945,22.493 287.640,21.924 288.474 C 21.354 289.308,20.301 291.483,19.582 293.307 C 18.863 295.131,18.015 296.915,17.698 297.271 C 17.380 297.627,16.726 299.257,16.244 300.892 C 15.763 302.527,14.849 304.808,14.214 305.961 C 13.579 307.114,12.646 309.802,12.143 311.934 C 11.639 314.067,10.763 316.791,10.197 317.988 C 8.995 320.529,5.905 337.114,5.650 342.392 C 5.245 350.778,9.694 360.213,14.681 361.546 C 15.655 361.807,16.675 362.203,16.948 362.427 C 17.753 363.087,23.358 362.954,25.768 362.218 C 26.967 361.851,29.224 361.192,30.782 360.751 C 32.340 360.311,33.715 359.693,33.836 359.377 C 33.957 359.062,35.001 358.326,36.156 357.743 C 37.311 357.159,39.297 355.814,40.570 354.753 C 41.843 353.693,43.115 352.825,43.397 352.825 C 43.679 352.825,44.387 352.199,44.971 351.433 C 45.555 350.668,46.700 349.701,47.517 349.285 C 48.333 348.868,49.203 348.085,49.449 347.545 C 49.695 347.005,50.620 346.156,51.505 345.659 C 52.390 345.162,53.219 344.423,53.347 344.018 C 53.476 343.612,54.288 342.835,55.151 342.290 C 56.014 341.745,56.873 340.904,57.060 340.421 C 57.246 339.939,58.176 338.785,59.126 337.857 C 60.075 336.929,61.602 335.323,62.518 334.289 C 63.434 333.255,65.040 331.461,66.086 330.302 C 69.927 326.049,71.420 324.381,75.553 319.722 C 82.779 311.579,84.581 309.575,86.422 307.632 C 87.403 306.597,89.143 304.764,90.287 303.558 C 91.432 302.353,92.369 301.188,92.369 300.970 C 92.369 300.752,92.996 300.204,93.762 299.752 C 94.529 299.299,95.320 298.497,95.522 297.967 C 95.723 297.438,96.513 296.528,97.279 295.944 C 98.044 295.361,99.031 294.271,99.472 293.523 C 99.913 292.776,100.740 291.952,101.309 291.693 C 101.878 291.433,102.693 290.536,103.120 289.698 C 103.548 288.860,104.335 287.975,104.870 287.731 C 105.405 287.487,106.197 286.688,106.630 285.955 C 107.062 285.221,108.000 284.276,108.713 283.854 C 109.426 283.432,110.247 282.546,110.537 281.885 C 110.826 281.224,111.629 280.287,112.320 279.801 C 113.012 279.316,113.651 278.734,113.741 278.508 C 114.016 277.812,120.410 271.556,120.845 271.556 C 121.071 271.556,121.379 271.164,121.531 270.685 C 121.756 269.978,135.936 255.305,147.305 244.017 C 153.885 237.483,170.120 221.722,171.951 220.090 C 173.094 219.070,174.827 217.478,175.801 216.551 C 176.775 215.624,177.763 214.866,177.995 214.866 C 178.396 214.866,180.515 212.954,184.201 209.268 C 187.170 206.297,190.749 206.278,192.947 209.222 C 193.555 210.037,194.373 210.942,194.764 211.233 C 195.154 211.525,195.941 212.506,196.513 213.414 C 197.084 214.322,198.216 215.867,199.029 216.848 C 199.841 217.830,200.812 219.239,201.186 219.981 C 201.561 220.723,202.371 221.755,202.988 222.274 C 203.605 222.793,204.305 223.810,204.544 224.533 C 204.783 225.257,205.435 226.277,205.992 226.800 C 206.550 227.323,207.651 228.910,208.438 230.327 C 209.226 231.744,210.206 233.148,210.618 233.446 C 211.029 233.744,211.713 234.796,212.137 235.785 C 212.561 236.774,213.439 238.188,214.088 238.928 C 214.737 239.667,215.794 241.312,216.435 242.584 C 217.077 243.855,217.850 244.990,218.152 245.106 C 218.455 245.223,219.184 246.334,219.772 247.576 C 220.360 248.818,221.362 250.485,221.998 251.280 C 222.635 252.075,223.547 253.617,224.026 254.708 C 224.505 255.798,225.251 256.940,225.683 257.245 C 226.116 257.551,227.062 259.084,227.787 260.651 C 228.511 262.219,229.408 263.753,229.780 264.060 C 230.151 264.367,230.883 265.583,231.405 266.762 C 231.927 267.941,232.963 269.617,233.706 270.485 C 234.449 271.353,235.331 272.888,235.666 273.895 C 236.000 274.902,236.646 275.959,237.100 276.242 C 237.555 276.526,238.513 278.044,239.229 279.616 C 239.945 281.187,240.849 282.737,241.238 283.060 C 241.627 283.383,242.426 284.718,243.013 286.026 C 243.600 287.334,244.389 288.661,244.767 288.974 C 245.545 289.620,247.374 293.055,247.374 293.872 C 247.374 294.168,247.845 294.843,248.422 295.372 C 248.998 295.901,250.061 297.598,250.784 299.145 C 251.506 300.691,252.401 302.207,252.773 302.514 C 253.144 302.821,253.876 304.037,254.398 305.216 C 254.920 306.395,255.956 308.071,256.699 308.939 C 257.442 309.807,258.324 311.342,258.659 312.349 C 258.993 313.356,259.622 314.402,260.055 314.672 C 260.488 314.943,261.454 316.379,262.202 317.863 C 262.949 319.347,263.863 320.812,264.233 321.119 C 264.603 321.426,265.418 322.735,266.044 324.028 C 266.670 325.321,267.526 326.619,267.945 326.912 C 268.364 327.206,269.099 328.255,269.578 329.245 C 270.057 330.234,271.079 331.797,271.850 332.717 C 272.620 333.637,273.559 335.107,273.935 335.982 C 274.311 336.857,274.923 337.825,275.294 338.133 C 275.666 338.442,276.760 339.866,277.726 341.299 C 279.746 344.295,281.626 346.792,283.565 349.058 C 284.312 349.931,285.147 351.072,285.421 351.596 C 285.695 352.119,286.567 353.227,287.360 354.058 C 288.152 354.889,289.604 356.499,290.585 357.634 C 291.566 358.770,292.886 360.159,293.519 360.722 C 294.151 361.284,295.311 362.389,296.096 363.177 C 296.880 363.965,298.104 364.907,298.815 365.271 C 299.526 365.634,300.329 366.293,300.599 366.734 C 300.869 367.175,302.161 368.054,303.469 368.688 C 304.777 369.322,306.367 370.294,307.001 370.849 C 307.636 371.403,308.885 372.052,309.776 372.290 C 311.805 372.833,314.767 374.146,315.587 374.867 C 319.664 378.451,348.622 378.150,354.920 374.459 C 355.874 373.900,357.656 373.098,358.881 372.677 C 360.106 372.255,362.054 371.204,363.210 370.341 C 364.366 369.479,365.758 368.639,366.303 368.476 C 366.848 368.312,368.008 367.474,368.880 366.612 C 377.942 357.662,379.782 355.706,379.782 355.027 C 379.782 354.727,380.497 353.577,381.370 352.472 C 382.244 351.367,383.328 349.523,383.779 348.373 C 384.231 347.224,385.122 345.369,385.760 344.251 C 386.398 343.133,387.431 340.279,388.056 337.908 C 388.681 335.537,389.477 332.920,389.827 332.092 C 392.285 326.258,392.226 297.702,389.746 293.061 C 389.542 292.680,388.811 289.693,388.120 286.422 C 387.411 283.066,386.432 279.635,385.872 278.546 C 385.326 277.485,384.535 275.255,384.114 273.591 C 383.692 271.927,382.789 269.495,382.106 268.186 C 381.423 266.878,380.454 264.607,379.953 263.140 C 379.452 261.673,378.598 259.889,378.056 259.176 C 377.514 258.463,376.612 256.658,376.051 255.166 C 375.491 253.673,374.625 251.968,374.127 251.377 C 373.630 250.786,372.783 249.194,372.245 247.840 C 371.707 246.486,370.695 244.735,369.995 243.949 C 369.296 243.163,368.615 242.027,368.483 241.425 C 368.351 240.823,367.653 239.641,366.932 238.798 C 366.210 237.955,365.069 236.172,364.396 234.837 C 363.722 233.502,362.901 232.306,362.572 232.179 C 362.242 232.053,361.439 230.893,360.788 229.602 C 360.136 228.311,359.342 227.155,359.022 227.033 C 358.703 226.910,357.807 225.674,357.030 224.286 C 356.254 222.898,355.151 221.325,354.579 220.792 C 354.008 220.258,353.200 219.159,352.785 218.348 C 352.369 217.538,351.674 216.685,351.239 216.452 C 350.804 216.219,350.096 215.338,349.665 214.494 C 349.235 213.650,348.398 212.578,347.807 212.113 C 347.216 211.648,346.387 210.694,345.965 209.994 C 345.544 209.294,344.372 207.812,343.363 206.701 C 342.353 205.590,340.545 203.486,339.346 202.024 C 338.147 200.563,336.229 198.421,335.084 197.266 C 333.940 196.110,333.003 194.963,333.003 194.718 C 333.003 194.473,332.461 193.992,331.799 193.649 C 331.136 193.307,330.299 192.408,329.939 191.651 C 329.578 190.895,328.694 189.929,327.975 189.504 C 327.256 189.080,326.327 188.173,325.910 187.488 C 325.494 186.804,324.609 185.913,323.944 185.508 C 323.279 185.103,322.475 184.274,322.159 183.665 C 321.843 183.055,321.034 182.152,320.362 181.658 C 319.691 181.164,318.877 180.248,318.554 179.624 C 318.232 179.000,317.335 178.117,316.562 177.661 C 315.789 177.205,314.945 176.366,314.686 175.797 C 314.426 175.228,313.540 174.419,312.715 173.998 C 311.890 173.577,310.960 172.744,310.648 172.147 C 310.336 171.549,309.459 170.730,308.699 170.326 C 307.938 169.922,306.993 168.992,306.598 168.259 C 306.203 167.525,305.395 166.725,304.802 166.479 C 304.209 166.234,303.263 165.335,302.699 164.483 C 302.135 163.631,301.475 162.934,301.232 162.934 C 300.989 162.934,299.966 162.130,298.958 161.147 C 297.950 160.165,296.049 158.425,294.733 157.282 C 293.417 156.139,291.127 154.133,289.643 152.825 C 288.159 151.516,286.617 150.268,286.216 150.050 C 284.050 148.872,280.982 144.700,281.246 143.292 C 281.628 141.256,283.604 139.265,286.582 137.915 C 288.019 137.263,289.641 136.304,290.187 135.784 C 290.733 135.264,292.071 134.458,293.162 133.994 C 294.252 133.530,295.590 132.726,296.135 132.208 C 296.680 131.690,298.330 130.704,299.802 130.016 C 301.274 129.328,302.478 128.626,302.478 128.456 C 302.478 128.285,303.771 127.469,305.352 126.641 C 306.933 125.813,308.850 124.648,309.613 124.052 C 310.377 123.455,311.938 122.572,313.082 122.089 C 314.227 121.606,315.164 121.048,315.164 120.849 C 315.164 120.650,316.622 119.782,318.404 118.920 C 320.186 118.058,322.014 117.007,322.467 116.583 C 322.920 116.160,324.426 115.277,325.814 114.622 C 327.202 113.967,328.719 113.078,329.184 112.646 C 329.649 112.213,331.050 111.411,332.298 110.863 C 333.545 110.314,335.387 109.238,336.391 108.472 C 337.394 107.706,338.818 106.880,339.555 106.637 C 340.291 106.394,341.004 105.847,341.139 105.423 C 341.273 104.998,342.174 103.990,343.140 103.183 C 344.106 102.376,344.896 101.481,344.896 101.196 C 344.896 100.910,345.587 99.922,346.432 99.000 C 347.277 98.078,348.465 96.343,349.073 95.144 C 349.681 93.944,350.606 92.497,351.128 91.927 C 351.691 91.312,352.457 89.509,353.012 87.492 C 353.527 85.622,354.453 82.967,355.071 81.590 C 356.759 77.829,356.815 63.620,355.153 60.456 C 354.581 59.366,353.651 56.957,353.087 55.104 C 352.424 52.925,351.779 51.560,351.261 51.240 C 350.821 50.968,350.021 49.898,349.483 48.861 C 348.018 46.036,342.282 40.308,339.544 38.937 C 338.672 38.499,337.622 37.770,337.210 37.315 C 336.799 36.860,335.015 35.934,333.246 35.258 C 331.477 34.582,329.412 33.670,328.658 33.232 C 326.990 32.264,321.895 31.131,316.551 30.540 C 312.666 30.111,307.224 29.402,306.046 29.171 C 305.719 29.107,304.559 29.190,303.469 29.354 M311.381 45.210 C 324.636 46.729,335.293 53.186,338.576 61.688 C 339.008 62.806,340.630 70.369,340.607 71.160 C 340.530 73.886,338.308 82.453,337.369 83.647 C 336.940 84.192,336.015 85.683,335.313 86.960 C 334.611 88.237,333.795 89.374,333.500 89.488 C 333.205 89.601,332.534 90.326,332.009 91.099 C 330.778 92.910,327.875 95.209,324.910 96.719 C 323.620 97.376,322.283 98.165,321.937 98.473 C 321.591 98.780,320.159 99.585,318.753 100.262 C 317.348 100.939,315.832 101.829,315.384 102.240 C 314.936 102.650,313.409 103.561,311.992 104.263 C 310.575 104.965,309.141 105.781,308.805 106.076 C 308.469 106.371,306.953 107.257,305.435 108.045 C 303.918 108.833,302.319 109.801,301.883 110.196 C 301.447 110.591,300.109 111.405,298.910 112.005 C 297.711 112.605,296.194 113.497,295.540 113.987 C 294.886 114.477,293.280 115.439,291.972 116.126 C 290.664 116.812,289.031 117.768,288.343 118.251 C 287.655 118.733,286.227 119.627,285.171 120.237 C 282.682 121.674,279.206 123.806,277.701 124.819 C 277.047 125.259,275.352 126.283,273.935 127.094 C 272.517 127.906,271.001 128.880,270.565 129.261 C 270.129 129.641,268.761 130.495,267.526 131.157 C 266.291 131.820,264.505 132.952,263.558 133.674 C 262.611 134.395,261.079 135.324,260.155 135.739 C 259.230 136.154,258.474 136.641,258.474 136.823 C 258.474 137.004,257.625 137.582,256.587 138.108 C 252.408 140.226,252.000 143.373,255.624 145.536 C 256.428 146.016,257.621 146.905,258.276 147.512 C 258.930 148.119,260.029 149.027,260.718 149.531 C 263.746 151.744,268.807 155.911,273.142 159.762 C 274.123 160.634,275.996 162.257,277.304 163.369 C 280.650 166.214,282.258 167.673,293.432 177.998 C 296.823 181.132,316.184 200.524,318.533 203.140 C 319.623 204.354,321.318 206.207,322.299 207.258 C 323.280 208.308,324.928 210.138,325.961 211.323 C 326.994 212.509,328.466 214.192,329.231 215.064 C 334.008 220.505,338.302 225.832,339.857 228.246 C 340.454 229.172,341.090 229.931,341.271 229.931 C 341.451 229.931,342.065 230.788,342.635 231.836 C 343.206 232.884,344.035 234.069,344.479 234.471 C 344.922 234.872,345.758 236.022,346.336 237.026 C 346.914 238.029,347.961 239.564,348.661 240.436 C 349.362 241.308,350.305 242.747,350.757 243.634 C 351.208 244.521,351.872 245.491,352.232 245.790 C 352.592 246.088,353.339 247.236,353.893 248.340 C 354.447 249.444,355.468 251.150,356.163 252.131 C 356.857 253.112,357.710 254.628,358.057 255.500 C 358.404 256.373,359.316 258.018,360.082 259.156 C 360.849 260.294,361.694 261.900,361.960 262.724 C 362.225 263.548,363.046 265.211,363.783 266.419 C 364.521 267.627,365.566 269.832,366.105 271.319 C 366.645 272.806,367.426 274.583,367.841 275.267 C 368.256 275.951,369.080 278.117,369.673 280.079 C 370.265 282.042,371.070 284.276,371.462 285.045 C 372.120 286.334,372.810 289.271,374.395 297.522 C 374.730 299.267,375.291 302.032,375.643 303.667 C 378.287 315.971,373.870 336.005,366.298 346.055 C 364.064 349.019,357.933 355.203,357.227 355.203 C 357.027 355.203,356.131 355.816,355.234 356.565 C 354.338 357.313,352.671 358.277,351.530 358.707 C 350.389 359.137,348.563 359.951,347.473 360.517 C 343.393 362.633,329.120 363.101,324.281 361.276 C 319.947 359.641,315.341 357.461,314.371 356.583 C 313.826 356.090,312.650 355.321,311.759 354.875 C 308.678 353.332,299.457 343.928,295.474 338.269 C 294.783 337.288,293.778 336.013,293.240 335.438 C 292.701 334.862,291.990 333.855,291.658 333.201 C 291.327 332.547,290.588 331.477,290.016 330.823 C 289.445 330.168,288.508 328.831,287.934 327.849 C 287.360 326.868,286.463 325.549,285.941 324.919 C 285.418 324.288,284.569 322.939,284.053 321.921 C 283.537 320.902,282.819 319.824,282.459 319.525 C 282.098 319.226,281.095 317.691,280.231 316.116 C 279.366 314.540,278.385 313.024,278.051 312.747 C 277.718 312.470,277.078 311.518,276.631 310.631 C 276.183 309.744,275.213 308.189,274.475 307.175 C 273.736 306.161,272.779 304.534,272.349 303.560 C 271.918 302.586,271.280 301.553,270.932 301.264 C 270.583 300.975,269.615 299.380,268.781 297.721 C 267.947 296.061,266.953 294.445,266.574 294.131 C 266.194 293.816,265.404 292.488,264.817 291.179 C 264.230 289.871,263.439 288.543,263.060 288.229 C 262.681 287.914,261.738 286.401,260.965 284.865 C 260.192 283.329,259.318 281.892,259.024 281.671 C 258.730 281.450,257.971 280.198,257.338 278.890 C 256.705 277.582,255.542 275.557,254.754 274.390 C 253.965 273.224,253.320 272.033,253.320 271.745 C 253.320 271.456,252.702 270.411,251.947 269.422 C 251.192 268.433,250.115 266.717,249.554 265.610 C 248.993 264.502,247.916 262.786,247.161 261.797 C 246.406 260.808,245.788 259.774,245.788 259.500 C 245.788 259.226,245.073 257.981,244.199 256.733 C 243.325 255.485,242.234 253.716,241.775 252.802 C 241.317 251.888,240.622 250.783,240.232 250.347 C 239.842 249.911,238.873 248.319,238.078 246.810 C 237.283 245.301,236.106 243.466,235.462 242.733 C 234.818 242.000,234.291 241.167,234.291 240.883 C 234.291 240.599,233.602 239.401,232.760 238.221 C 231.918 237.041,230.823 235.273,230.328 234.291 C 229.833 233.310,228.961 231.952,228.391 231.273 C 227.820 230.593,226.864 229.166,226.265 228.101 C 225.666 227.036,224.595 225.326,223.886 224.302 C 223.177 223.277,222.202 221.850,221.719 221.130 C 221.236 220.410,219.809 218.330,218.548 216.506 C 217.286 214.683,215.677 212.287,214.972 211.183 C 214.267 210.079,213.252 208.716,212.717 208.155 C 212.182 207.595,211.331 206.568,210.827 205.874 C 206.756 200.269,203.773 196.767,198.315 191.184 C 196.080 188.898,194.252 186.899,194.252 186.743 C 194.252 186.587,193.386 186.053,192.328 185.558 C 190.066 184.498,189.032 184.825,186.071 187.532 C 185.169 188.356,183.887 189.313,183.221 189.657 C 182.555 190.001,181.777 190.612,181.491 191.015 C 181.205 191.418,180.228 192.214,179.320 192.785 C 178.413 193.355,177.431 194.149,177.140 194.549 C 176.849 194.948,175.986 195.705,175.223 196.231 C 173.540 197.389,165.339 204.461,158.375 210.758 C 152.547 216.028,128.916 239.339,125.471 243.216 C 124.381 244.443,123.060 245.836,122.535 246.311 C 122.011 246.786,121.075 247.711,120.455 248.365 C 119.835 249.019,119.167 249.706,118.970 249.891 C 118.506 250.328,115.542 253.293,115.104 253.757 C 114.919 253.954,114.232 254.635,113.578 255.271 C 112.924 255.906,111.497 257.443,110.406 258.684 C 109.316 259.926,107.921 261.413,107.307 261.988 C 106.692 262.562,105.800 263.472,105.324 264.008 C 104.849 264.545,103.944 265.436,103.314 265.990 C 102.683 266.544,101.881 267.344,101.530 267.767 C 101.179 268.191,99.179 270.332,97.085 272.525 C 94.991 274.717,91.793 278.117,89.977 280.079 C 88.161 282.042,85.674 284.718,84.450 286.026 C 81.160 289.543,77.162 293.894,73.142 298.333 C 71.179 300.500,68.771 303.111,67.790 304.135 C 66.809 305.159,65.203 306.939,64.222 308.089 C 62.283 310.364,60.197 312.668,57.278 315.758 C 56.249 316.848,55.166 318.084,54.871 318.505 C 52.654 321.671,36.856 337.594,34.226 339.314 C 33.318 339.908,32.112 340.944,31.546 341.617 C 28.472 345.270,23.394 346.192,22.202 343.315 C 21.269 341.063,22.597 330.427,24.419 325.548 C 24.932 324.173,25.902 321.141,26.575 318.809 C 27.247 316.477,28.044 314.189,28.346 313.725 C 28.647 313.261,29.522 311.078,30.290 308.873 C 31.057 306.668,32.042 304.372,32.478 303.770 C 32.913 303.168,33.743 301.338,34.320 299.703 C 34.898 298.067,35.624 296.442,35.934 296.090 C 36.243 295.738,37.110 293.974,37.859 292.170 C 38.609 290.367,39.485 288.600,39.806 288.245 C 40.128 287.890,40.963 286.353,41.663 284.830 C 42.363 283.307,43.259 281.699,43.655 281.257 C 44.051 280.814,45.083 279.003,45.948 277.232 C 46.813 275.461,47.715 273.893,47.952 273.746 C 48.189 273.600,48.899 272.457,49.531 271.206 C 50.162 269.955,50.972 268.688,51.330 268.391 C 51.688 268.094,52.496 266.751,53.124 265.407 C 53.753 264.063,54.901 262.203,55.676 261.275 C 56.452 260.347,57.086 259.355,57.086 259.070 C 57.086 258.785,57.866 257.509,58.819 256.234 C 59.773 254.958,60.913 253.201,61.354 252.329 C 61.795 251.457,62.551 250.387,63.033 249.950 C 63.516 249.514,64.319 248.355,64.817 247.374 C 65.315 246.392,66.098 245.250,66.558 244.834 C 67.018 244.418,68.005 242.987,68.751 241.652 C 69.497 240.318,70.497 238.874,70.973 238.444 C 71.449 238.013,72.157 237.037,72.547 236.274 C 72.937 235.510,73.630 234.548,74.087 234.134 C 74.544 233.720,75.389 232.561,75.965 231.557 C 76.540 230.554,77.674 228.930,78.484 227.948 C 79.295 226.967,80.236 225.629,80.575 224.975 C 80.915 224.321,81.674 223.340,82.261 222.795 C 82.848 222.250,83.665 221.147,84.077 220.343 C 84.489 219.540,85.175 218.638,85.603 218.339 C 86.030 218.040,86.969 216.969,87.689 215.959 C 89.931 212.818,92.742 209.162,93.710 208.127 C 94.220 207.582,95.126 206.386,95.723 205.470 C 96.320 204.555,97.235 203.526,97.755 203.185 C 98.276 202.844,99.058 201.866,99.494 201.011 C 99.930 200.157,100.601 199.223,100.986 198.936 C 101.371 198.649,102.212 197.701,102.856 196.829 C 103.500 195.956,104.927 194.192,106.027 192.908 C 107.128 191.623,108.788 189.661,109.718 188.547 C 112.307 185.444,114.588 182.822,116.551 180.692 C 117.532 179.628,119.161 177.828,120.171 176.693 C 121.181 175.557,122.720 173.871,123.592 172.945 C 124.463 172.020,125.657 170.632,126.244 169.861 C 126.832 169.091,127.628 168.154,128.014 167.778 C 128.400 167.403,130.816 164.777,133.383 161.943 C 135.950 159.108,139.814 154.939,141.969 152.678 C 146.056 148.389,146.144 148.216,145.465 145.770 C 145.137 144.591,144.622 144.004,143.086 143.058 C 142.008 142.395,140.903 141.555,140.632 141.193 C 140.361 140.831,139.425 140.013,138.553 139.374 C 137.681 138.736,136.243 137.577,135.358 136.798 C 134.473 136.019,132.620 134.490,131.241 133.399 C 129.861 132.309,127.695 130.525,126.427 129.435 C 125.159 128.345,123.115 126.650,121.884 125.669 C 120.654 124.688,118.995 123.338,118.198 122.670 C 116.735 121.443,112.975 118.478,110.283 116.428 C 109.479 115.816,108.196 114.733,107.433 114.021 C 106.670 113.310,105.510 112.404,104.856 112.008 C 104.202 111.612,103.132 110.761,102.478 110.117 C 101.195 108.855,98.111 106.412,95.240 104.386 C 94.256 103.692,92.895 102.609,92.216 101.980 C 91.537 101.351,90.457 100.511,89.817 100.113 C 89.176 99.715,88.224 98.880,87.700 98.257 C 87.177 97.635,86.524 97.126,86.250 97.126 C 85.977 97.126,84.748 96.278,83.520 95.243 C 80.519 92.711,77.564 90.420,75.595 89.097 C 74.701 88.497,73.427 87.491,72.763 86.862 C 72.099 86.233,70.992 85.434,70.303 85.087 C 69.613 84.740,68.715 84.031,68.306 83.511 C 67.897 82.991,66.944 82.254,66.189 81.873 C 65.434 81.492,64.014 80.517,63.033 79.707 C 62.052 78.897,60.417 77.749,59.399 77.156 C 58.382 76.564,57.322 75.805,57.044 75.470 C 56.766 75.135,55.529 74.351,54.295 73.728 C 53.061 73.105,51.509 72.140,50.847 71.583 C 50.185 71.026,48.924 70.161,48.045 69.662 C 47.165 69.162,45.443 67.629,44.217 66.256 L 41.988 63.758 42.717 62.503 C 43.863 60.532,45.522 60.389,58.032 61.185 C 69.739 61.929,73.774 62.375,76.511 63.230 C 77.493 63.537,81.863 64.256,86.224 64.829 C 91.708 65.550,95.191 66.224,97.522 67.015 C 99.376 67.643,102.676 68.436,104.856 68.776 C 109.086 69.435,112.895 70.404,113.631 71.010 C 113.879 71.213,116.422 71.907,119.282 72.552 C 122.142 73.197,125.329 74.146,126.364 74.662 C 127.399 75.177,129.851 75.994,131.814 76.477 C 133.776 76.960,136.139 77.777,137.065 78.292 C 137.991 78.807,140.390 79.701,142.397 80.279 C 144.404 80.856,146.769 81.742,147.652 82.247 C 148.534 82.751,150.773 83.645,152.626 84.232 C 154.480 84.820,156.785 85.820,157.749 86.456 C 158.713 87.092,159.706 87.611,159.956 87.611 C 161.156 87.611,164.602 88.922,165.591 89.753 C 166.201 90.267,168.012 91.143,169.615 91.700 C 171.218 92.258,173.181 93.161,173.976 93.707 C 174.771 94.252,176.434 95.074,177.671 95.533 C 178.908 95.992,180.563 96.804,181.349 97.337 C 182.134 97.870,184.065 98.854,185.640 99.524 C 187.215 100.194,188.904 101.119,189.394 101.579 L 190.286 102.416 192.343 101.456 C 193.474 100.928,195.594 99.425,197.054 98.117 C 201.869 93.803,203.955 92.100,205.232 91.440 C 205.925 91.081,206.759 90.408,207.083 89.945 C 207.408 89.482,208.291 88.722,209.046 88.258 C 209.801 87.793,211.108 86.823,211.949 86.101 C 214.115 84.242,220.450 79.683,220.866 79.683 C 221.058 79.683,221.615 79.219,222.104 78.653 C 222.593 78.087,223.707 77.260,224.579 76.816 C 225.451 76.372,226.752 75.496,227.470 74.869 C 228.188 74.243,229.804 73.211,231.062 72.576 C 232.319 71.942,233.593 71.126,233.894 70.765 C 234.194 70.403,235.343 69.653,236.447 69.098 C 237.551 68.543,239.257 67.510,240.238 66.802 C 241.219 66.095,242.912 65.127,243.999 64.651 C 245.086 64.176,246.335 63.453,246.774 63.044 C 247.213 62.636,248.910 61.655,250.545 60.866 C 252.180 60.076,254.321 59.005,255.302 58.487 C 258.999 56.532,264.696 53.959,266.799 53.294 C 267.998 52.914,269.960 52.110,271.160 51.506 C 272.359 50.902,275.034 50.012,277.105 49.528 C 279.175 49.045,281.604 48.334,282.502 47.949 C 287.809 45.675,302.922 44.241,311.381 45.210 M397.666 127.568 C 397.329 128.197,397.441 128.260,398.643 128.119 C 399.462 128.024,400.000 127.742,400.000 127.410 C 400.000 126.600,398.116 126.728,397.666 127.568 M395.441 133.632 C 391.279 137.845,390.473 137.853,391.958 133.669 C 392.087 133.302,390.830 134.339,389.164 135.971 C 387.497 137.604,386.165 139.120,386.203 139.341 C 386.334 140.093,384.538 142.589,383.538 143.044 C 382.592 143.476,381.764 144.897,381.764 146.091 C 381.764 146.553,381.981 146.549,383.139 146.065 C 383.895 145.749,384.938 145.491,385.456 145.491 C 386.625 145.491,387.702 144.354,387.738 143.081 C 387.800 140.953,388.447 140.494,388.476 142.557 C 388.503 144.545,388.464 144.613,386.128 146.645 C 383.779 148.688,382.962 149.045,376.809 150.722 C 374.911 151.239,373.835 152.090,373.835 153.076 C 373.835 154.597,372.534 157.025,371.406 157.608 C 370.778 157.933,369.804 158.894,369.242 159.743 C 368.680 160.593,367.994 161.375,367.719 161.480 C 367.309 161.638,364.321 167.332,364.321 167.957 C 364.321 168.058,364.633 168.043,365.015 167.924 C 365.786 167.683,369.078 170.461,369.078 171.353 C 369.078 171.640,368.543 172.345,367.889 172.919 C 366.302 174.311,366.364 175.343,368.097 176.365 C 368.865 176.819,369.599 177.464,369.727 177.799 C 369.901 178.252,370.632 177.711,372.593 175.674 C 374.975 173.201,375.443 172.896,377.522 172.464 C 379.236 172.109,380.164 171.643,381.175 170.632 L 382.531 169.277 386.357 169.277 C 390.030 169.277,390.236 169.230,391.518 168.104 C 392.253 167.459,393.614 166.745,394.544 166.518 C 395.473 166.291,396.782 165.926,397.451 165.708 C 398.121 165.490,398.968 165.312,399.334 165.312 C 399.859 165.312,400.000 164.934,400.000 163.528 L 400.000 161.744 397.141 161.744 L 394.282 161.744 396.234 159.762 C 397.447 158.530,398.529 157.780,399.093 157.780 C 399.974 157.780,400.000 157.674,400.000 154.014 L 400.000 150.248 397.156 150.248 L 394.312 150.248 395.273 149.219 C 396.431 147.979,398.081 147.076,399.187 147.076 C 399.980 147.076,400.000 146.878,400.000 138.949 L 400.000 130.823 399.108 130.823 C 398.529 130.824,397.244 131.808,395.441 133.632 M0.000 174.827 L 0.000 210.902 0.813 210.902 C 1.919 210.902,3.569 209.999,4.727 208.759 L 5.688 207.730 19.296 207.730 C 30.663 207.730,32.904 207.639,32.904 207.178 C 32.904 206.515,33.756 206.145,35.280 206.145 C 36.281 206.145,36.431 205.973,36.671 204.554 C 36.959 202.850,37.734 202.180,39.419 202.180 C 40.299 202.180,40.436 202.009,40.436 200.913 C 40.436 199.465,42.126 196.776,43.263 196.416 C 43.678 196.284,44.289 195.527,44.620 194.733 C 45.335 193.023,46.291 191.888,47.348 191.493 C 47.791 191.328,48.298 190.556,48.547 189.666 C 48.958 188.202,49.732 187.521,51.635 186.952 C 52.120 186.807,52.329 186.337,52.329 185.393 C 52.329 183.847,52.790 183.356,54.609 182.968 C 55.725 182.729,55.897 182.529,55.897 181.467 C 55.897 180.497,56.317 179.862,57.905 178.426 C 59.232 177.226,59.928 176.274,59.957 175.619 C 59.982 175.074,60.170 174.405,60.376 174.133 C 60.617 173.815,60.606 173.637,60.345 173.637 C 60.122 173.637,60.440 173.102,61.051 172.448 C 62.118 171.305,62.947 170.831,62.438 171.655 C 62.138 172.141,62.642 172.161,63.381 171.693 C 63.732 171.471,63.862 170.897,63.745 170.096 C 63.644 169.408,63.713 168.752,63.898 168.637 C 64.083 168.523,64.114 168.218,63.967 167.961 C 63.819 167.703,63.844 167.625,64.023 167.786 C 64.690 168.390,65.411 167.152,65.411 165.404 C 65.411 162.509,60.517 157.780,57.521 157.780 C 55.540 157.780,53.518 156.552,53.518 155.349 C 53.518 155.166,52.805 154.544,51.933 153.967 C 50.591 153.079,49.518 151.671,50.775 152.448 C 51.011 152.594,52.179 152.939,53.370 153.216 C 56.607 153.969,55.245 152.709,49.946 150.049 C 46.587 148.363,45.243 147.412,43.009 145.141 C 40.316 142.404,40.183 142.325,38.275 142.322 C 36.624 142.320,36.112 142.126,35.061 141.107 C 32.892 139.005,30.936 138.781,14.569 138.765 L 0.000 138.751 0.000 174.827 " stroke="none" fill="#265d54" fillRule="evenodd"/>
        <path id="path3" d="M301.691 49.001 C 297.709 50.808,292.142 51.933,287.175 51.933 C 282.706 51.933,282.686 51.937,279.653 53.534 C 277.362 54.741,275.869 55.230,273.600 55.518 C 270.775 55.876,270.478 56.009,268.780 57.682 C 267.022 59.413,266.898 59.465,264.480 59.465 C 261.475 59.465,260.566 59.896,259.822 61.677 C 259.304 62.917,259.112 63.033,257.576 63.036 C 252.971 63.046,251.734 63.429,251.734 64.848 C 251.734 66.457,251.370 66.696,248.375 67.049 C 246.571 67.261,245.834 67.548,245.281 68.253 C 243.530 70.485,243.410 70.565,241.809 70.565 C 240.324 70.565,238.256 71.940,238.256 72.928 C 238.256 73.370,235.571 74.505,233.889 74.774 C 232.578 74.984,232.309 75.182,232.309 75.939 C 232.309 77.118,231.316 78.097,230.119 78.097 C 228.769 78.097,227.208 78.893,226.947 79.714 C 226.667 80.597,224.321 82.004,222.496 82.383 C 221.367 82.618,221.028 82.926,220.664 84.051 C 220.280 85.239,219.972 85.490,218.451 85.857 C 217.014 86.203,216.587 86.520,216.166 87.553 C 215.791 88.471,215.316 88.889,214.450 89.062 C 213.791 89.194,212.679 89.851,211.978 90.521 C 210.240 92.184,208.127 93.621,206.957 93.937 C 206.422 94.081,205.703 94.708,205.358 95.330 C 204.689 96.538,204.212 96.898,202.458 97.520 C 201.776 97.762,201.192 98.361,200.944 99.074 C 200.660 99.886,200.066 100.423,198.959 100.866 C 197.834 101.316,197.258 101.843,196.961 102.694 C 195.821 105.965,187.156 105.987,184.250 102.726 C 183.595 101.991,182.428 101.408,180.638 100.924 C 178.778 100.420,177.716 99.879,177.059 99.097 C 176.360 98.267,175.309 97.767,172.892 97.115 C 170.490 96.467,169.432 95.965,168.774 95.163 C 168.136 94.385,167.114 93.882,165.114 93.362 C 161.536 92.431,160.620 92.008,160.351 91.162 C 160.198 90.678,159.222 90.265,157.073 89.772 C 153.522 88.959,152.795 88.649,151.410 87.359 C 150.715 86.713,149.451 86.232,147.434 85.846 C 143.667 85.125,142.326 84.614,141.284 83.504 C 140.658 82.836,139.637 82.488,137.220 82.118 C 133.486 81.546,131.826 80.931,130.363 79.575 C 129.586 78.855,128.666 78.533,126.799 78.327 C 122.602 77.863,118.972 76.892,117.827 75.929 C 116.993 75.227,115.881 74.911,112.981 74.551 C 108.291 73.969,105.263 73.151,103.469 71.979 C 102.315 71.227,100.964 70.959,95.464 70.393 C 88.446 69.671,85.404 69.046,83.802 67.996 C 82.831 67.360,80.025 67.088,61.249 65.812 C 58.196 65.604,55.076 65.251,54.314 65.026 C 51.818 64.291,50.395 64.488,50.113 65.609 C 49.681 67.334,49.823 67.477,53.584 69.100 C 54.383 69.445,55.144 70.067,55.276 70.482 C 55.417 70.926,56.169 71.433,57.102 71.712 C 59.260 72.359,61.365 73.647,61.631 74.484 C 61.751 74.863,62.785 75.608,63.928 76.140 C 65.099 76.684,66.208 77.522,66.469 78.058 C 66.730 78.594,67.572 79.229,68.399 79.514 C 69.207 79.791,70.528 80.706,71.336 81.547 C 72.144 82.388,73.695 83.498,74.784 84.015 C 75.892 84.542,77.042 85.442,77.398 86.061 C 77.827 86.809,78.567 87.311,79.681 87.611 C 80.988 87.963,81.444 88.330,81.885 89.385 C 82.284 90.342,82.774 90.789,83.628 90.977 C 84.688 91.210,86.819 93.165,86.819 93.905 C 86.819 94.063,87.413 94.406,88.139 94.669 C 88.865 94.932,90.337 95.967,91.410 96.970 C 92.482 97.973,93.952 99.050,94.676 99.364 C 95.401 99.678,96.291 100.455,96.656 101.090 C 97.069 101.810,97.977 102.497,99.061 102.911 C 100.302 103.385,100.926 103.902,101.231 104.709 C 101.506 105.438,102.100 105.988,102.895 106.251 C 103.575 106.475,104.651 107.206,105.286 107.876 C 105.922 108.545,107.379 109.718,108.524 110.482 C 109.669 111.247,110.959 112.368,111.390 112.973 C 111.822 113.579,112.804 114.373,113.573 114.738 C 114.342 115.103,115.371 115.946,115.860 116.611 C 116.349 117.276,117.425 118.092,118.251 118.424 C 119.136 118.780,119.997 119.500,120.347 120.177 C 120.704 120.868,121.560 121.574,122.489 121.946 C 123.340 122.286,124.319 122.996,124.664 123.524 C 125.010 124.051,125.957 124.902,126.769 125.416 C 127.581 125.929,129.138 127.193,130.228 128.225 C 131.318 129.256,132.789 130.343,133.498 130.639 C 134.206 130.935,134.988 131.623,135.236 132.168 C 135.488 132.721,136.341 133.420,137.166 133.750 C 138.079 134.115,138.962 134.880,139.477 135.753 C 139.935 136.530,140.560 137.166,140.865 137.166 C 141.680 137.166,143.516 138.720,143.903 139.739 C 144.111 140.284,144.701 140.714,145.447 140.863 C 146.112 140.996,147.017 141.467,147.460 141.910 C 147.903 142.353,148.434 142.716,148.640 142.716 C 150.699 142.716,150.910 148.910,148.902 150.441 C 148.162 151.005,147.333 152.007,147.060 152.666 C 146.765 153.378,145.995 154.136,145.162 154.534 C 144.392 154.902,143.469 155.738,143.113 156.392 C 142.756 157.047,141.911 157.939,141.235 158.375 C 140.559 158.811,139.737 159.840,139.408 160.661 C 138.996 161.690,138.405 162.325,137.508 162.702 C 136.606 163.081,136.071 163.658,135.768 164.578 C 135.478 165.460,134.872 166.139,133.969 166.598 C 133.073 167.052,132.376 167.829,131.935 168.864 C 131.472 169.948,130.942 170.520,130.234 170.698 C 129.569 170.865,128.923 171.510,128.407 172.521 C 127.968 173.381,127.002 174.444,126.260 174.881 C 125.518 175.319,124.795 176.065,124.652 176.540 C 124.510 177.015,123.621 178.206,122.678 179.187 C 121.734 180.168,119.788 182.309,118.353 183.944 C 116.918 185.580,114.964 187.721,114.011 188.702 C 113.058 189.683,112.153 190.899,112.000 191.405 C 111.848 191.911,111.167 192.663,110.486 193.076 C 109.806 193.490,108.975 194.411,108.639 195.122 C 108.303 195.834,107.455 196.776,106.754 197.217 C 106.046 197.663,105.283 198.596,105.034 199.321 C 104.788 200.037,104.051 201.018,103.395 201.501 C 102.739 201.984,101.935 202.893,101.608 203.523 C 101.281 204.152,100.316 205.372,99.462 206.234 C 98.609 207.096,97.443 208.600,96.871 209.575 C 96.299 210.551,95.388 211.639,94.846 211.994 C 94.304 212.350,93.536 213.398,93.138 214.325 C 92.693 215.364,91.964 216.245,91.236 216.621 C 90.487 217.008,89.884 217.751,89.586 218.656 C 89.307 219.501,88.628 220.378,87.919 220.809 C 87.261 221.209,86.381 222.221,85.964 223.058 C 84.509 225.974,84.038 226.672,83.120 227.273 C 82.612 227.606,81.890 228.679,81.517 229.657 C 81.037 230.912,80.500 231.574,79.689 231.910 C 78.911 232.232,78.456 232.768,78.280 233.567 C 78.138 234.216,77.280 235.582,76.374 236.603 C 75.469 237.623,74.299 239.361,73.776 240.465 C 73.253 241.569,72.354 242.742,71.777 243.073 C 71.108 243.457,70.548 244.282,70.225 245.359 C 69.878 246.516,69.353 247.251,68.546 247.704 C 67.900 248.068,67.259 248.811,67.121 249.356 C 66.666 251.155,65.293 253.499,63.954 254.761 C 63.165 255.505,62.636 256.390,62.636 256.965 C 62.636 258.078,62.067 258.864,60.606 259.766 C 60.034 260.119,59.469 260.820,59.350 261.324 C 58.770 263.773,57.876 265.479,56.793 266.204 C 55.961 266.761,55.467 267.541,55.136 268.822 C 54.845 269.949,54.079 271.275,53.133 272.289 C 52.290 273.193,51.306 274.818,50.946 275.902 C 50.582 276.998,49.854 278.191,49.307 278.590 C 48.687 279.042,47.967 280.332,47.365 282.072 C 46.729 283.908,46.004 285.179,45.206 285.856 C 44.545 286.417,44.004 287.084,44.004 287.339 C 44.004 288.554,41.861 292.978,40.998 293.543 C 40.471 293.888,40.040 294.505,40.040 294.913 C 40.040 296.536,38.400 300.877,37.527 301.564 C 36.915 302.047,36.370 303.248,35.852 305.253 C 35.431 306.888,34.521 309.067,33.832 310.096 C 33.143 311.124,32.380 312.908,32.137 314.060 C 31.474 317.207,30.490 319.995,29.631 321.160 C 29.111 321.865,28.609 323.850,28.077 327.305 C 27.639 330.148,26.679 334.207,25.910 336.469 C 25.150 338.702,24.622 340.682,24.738 340.868 C 25.292 341.766,28.459 340.657,30.016 339.020 C 30.883 338.109,31.885 337.364,32.243 337.364 C 32.611 337.364,33.144 336.764,33.471 335.980 C 33.851 335.072,34.545 334.361,35.490 333.910 C 36.410 333.471,37.130 332.746,37.481 331.907 C 37.843 331.041,38.449 330.447,39.258 330.165 C 39.971 329.916,40.886 329.103,41.440 328.226 C 41.964 327.395,42.884 326.480,43.484 326.192 C 44.084 325.904,44.766 325.287,44.999 324.819 C 45.665 323.483,46.473 322.642,47.445 322.272 C 47.939 322.084,48.604 321.304,48.924 320.538 C 49.244 319.772,50.064 318.806,50.745 318.392 C 51.427 317.977,52.335 316.929,52.764 316.062 C 53.193 315.195,53.971 314.292,54.493 314.054 C 55.016 313.816,55.747 312.981,56.118 312.198 C 56.489 311.416,57.155 310.582,57.598 310.345 C 58.462 309.882,60.258 308.072,60.258 307.664 C 60.258 307.527,61.254 306.349,62.473 305.046 C 63.691 303.742,64.922 302.230,65.209 301.685 C 65.496 301.140,66.280 300.289,66.952 299.795 C 67.624 299.300,68.437 298.385,68.760 297.761 C 69.083 297.137,69.987 296.249,70.769 295.788 C 71.573 295.313,72.368 294.440,72.599 293.778 C 72.823 293.135,73.610 292.252,74.348 291.816 C 75.099 291.374,75.944 290.416,76.267 289.642 C 76.598 288.852,77.368 287.989,78.065 287.628 C 78.764 287.267,79.532 286.405,79.865 285.607 C 80.233 284.726,80.893 284.028,81.667 283.703 C 82.365 283.409,83.177 282.609,83.564 281.833 C 83.943 281.074,84.806 280.214,85.523 279.881 C 86.357 279.493,86.955 278.835,87.241 277.990 C 87.523 277.153,88.160 276.447,89.040 275.996 C 89.791 275.611,90.709 274.680,91.088 273.922 C 91.465 273.166,92.337 272.279,93.026 271.952 C 93.767 271.600,94.530 270.789,94.896 269.964 C 95.237 269.197,96.050 268.255,96.702 267.869 C 97.355 267.484,98.118 266.692,98.399 266.109 C 98.680 265.526,99.581 264.595,100.402 264.038 C 101.222 263.482,102.243 262.453,102.669 261.752 C 103.095 261.051,103.915 260.359,104.490 260.215 C 105.159 260.047,105.726 259.499,106.062 258.693 C 106.352 258.001,108.589 255.483,111.034 253.098 C 116.791 247.481,120.999 243.195,123.555 240.343 C 126.429 237.136,139.659 223.947,143.345 220.614 C 145.033 219.088,146.786 217.395,147.241 216.852 C 148.077 215.853,152.866 211.088,156.254 207.887 C 157.268 206.929,158.368 206.145,158.699 206.145 C 159.030 206.145,159.627 205.476,160.027 204.658 C 160.541 203.606,161.148 203.044,162.101 202.736 C 163.020 202.439,163.681 201.849,164.175 200.886 C 164.670 199.921,165.335 199.328,166.270 199.020 C 167.131 198.736,167.934 198.067,168.436 197.217 C 168.874 196.474,169.830 195.617,170.561 195.311 C 171.292 195.006,172.182 194.310,172.540 193.764 C 172.898 193.218,174.020 192.285,175.034 191.691 C 176.048 191.096,177.506 189.915,178.274 189.064 C 179.083 188.169,180.316 187.325,181.205 187.058 C 182.175 186.768,182.833 186.292,182.993 185.767 C 183.378 184.501,184.304 183.619,185.535 183.349 C 186.146 183.215,187.278 182.491,188.051 181.741 C 188.823 180.990,189.839 180.377,190.307 180.377 C 191.361 180.377,193.855 181.528,193.855 182.014 C 193.855 182.211,194.482 182.670,195.248 183.035 C 196.175 183.478,196.867 184.214,197.320 185.242 C 197.783 186.290,198.421 186.960,199.312 187.332 C 200.181 187.695,200.820 188.352,201.207 189.278 C 201.596 190.208,202.234 190.861,203.114 191.229 C 204.057 191.623,204.618 192.236,205.070 193.364 C 205.498 194.435,206.016 195.026,206.671 195.190 C 207.317 195.352,207.917 196.024,208.474 197.209 C 208.966 198.254,209.782 199.229,210.459 199.579 C 211.091 199.907,211.797 200.713,212.026 201.371 C 212.256 202.030,212.944 203.061,213.556 203.663 C 214.795 204.881,217.236 208.469,217.260 209.105 C 217.268 209.330,217.833 209.871,218.515 210.307 C 219.270 210.789,219.962 211.705,220.283 212.643 C 220.573 213.491,221.413 214.740,222.151 215.418 C 222.888 216.096,223.889 217.621,224.376 218.808 C 224.863 219.995,225.706 221.315,226.248 221.742 C 226.791 222.169,227.582 223.328,228.006 224.317 C 228.430 225.306,229.129 226.361,229.559 226.663 C 230.384 227.240,232.027 230.235,232.440 231.913 C 232.574 232.458,233.203 233.196,233.837 233.552 C 234.655 234.012,235.187 234.794,235.669 236.243 C 236.051 237.394,236.743 238.545,237.254 238.880 C 238.203 239.502,239.664 242.111,240.012 243.806 C 240.124 244.351,240.728 245.085,241.354 245.436 C 242.240 245.934,242.700 246.710,243.430 248.938 C 244.145 251.120,244.618 251.929,245.419 252.343 C 246.397 252.849,246.948 253.786,247.575 256.007 C 247.716 256.503,248.264 257.193,248.793 257.540 C 249.775 258.183,251.049 260.617,251.515 262.738 C 251.671 263.448,252.161 264.091,252.751 264.360 C 253.288 264.605,253.885 265.209,254.076 265.703 C 255.386 269.091,256.028 270.280,256.986 271.095 C 257.646 271.656,258.314 272.843,258.682 274.108 C 259.016 275.256,259.747 276.624,260.307 277.146 C 261.475 278.237,262.621 280.332,262.995 282.061 C 263.150 282.782,263.691 283.503,264.368 283.890 C 265.192 284.362,265.733 285.234,266.433 287.218 C 267.065 289.008,267.753 290.181,268.492 290.727 C 269.221 291.266,269.806 292.253,270.200 293.609 C 270.568 294.873,271.156 295.904,271.719 296.273 C 272.750 296.949,274.094 299.308,274.499 301.150 C 274.664 301.900,275.142 302.539,275.744 302.814 C 276.683 303.241,276.869 303.543,277.888 306.287 C 278.140 306.966,279.052 308.301,279.916 309.256 C 280.780 310.211,281.666 311.655,281.884 312.465 C 282.271 313.901,283.180 315.164,283.827 315.164 C 284.004 315.164,284.634 316.188,285.227 317.439 C 285.819 318.691,286.885 320.358,287.595 321.144 C 288.306 321.931,289.202 323.399,289.587 324.408 C 289.983 325.444,290.615 326.346,291.040 326.481 C 291.454 326.612,292.326 327.775,292.977 329.066 C 293.628 330.356,294.811 332.081,295.605 332.898 C 296.399 333.716,297.294 334.972,297.594 335.690 C 297.894 336.407,298.578 337.194,299.115 337.439 C 299.675 337.694,300.444 338.666,300.921 339.722 C 301.446 340.884,302.151 341.737,302.837 342.041 C 303.434 342.305,304.177 343.100,304.488 343.808 C 304.840 344.606,305.602 345.351,306.496 345.770 C 307.435 346.210,308.083 346.864,308.356 347.647 C 308.656 348.506,309.229 349.030,310.366 349.485 C 311.404 349.900,312.135 350.523,312.468 351.275 C 312.863 352.168,313.428 352.559,314.974 353.008 C 316.071 353.327,317.715 354.227,318.626 355.007 C 320.055 356.230,320.764 356.504,323.769 356.996 C 325.686 357.310,327.878 357.748,328.640 357.970 C 330.942 358.642,339.132 358.449,343.310 357.623 C 345.382 357.214,347.701 356.768,348.464 356.631 C 349.292 356.483,350.530 355.753,351.533 354.821 C 352.538 353.887,353.787 353.151,354.636 352.992 C 355.731 352.786,356.201 352.422,356.688 351.401 C 357.049 350.644,357.886 349.807,358.642 349.449 C 359.432 349.074,360.277 348.208,360.741 347.299 C 361.228 346.344,361.947 345.627,362.670 345.375 C 363.558 345.065,363.882 344.651,364.086 343.564 C 364.232 342.789,365.049 341.271,365.903 340.191 C 367.076 338.706,367.654 337.429,368.270 334.953 C 368.718 333.151,369.527 330.744,370.067 329.602 C 372.780 323.867,372.696 302.006,369.934 294.933 C 369.289 293.281,368.461 289.954,368.081 287.489 C 367.492 283.661,367.238 282.863,366.279 281.838 C 365.429 280.927,364.957 279.729,364.293 276.794 C 363.609 273.769,363.169 272.675,362.243 271.691 C 361.487 270.888,360.795 269.471,360.317 267.749 C 359.848 266.056,359.148 264.612,358.426 263.849 C 357.796 263.182,356.965 261.655,356.578 260.456 C 356.190 259.251,355.207 257.513,354.381 256.571 C 353.432 255.487,352.790 254.287,352.619 253.277 C 352.434 252.182,351.883 251.225,350.846 250.198 C 349.967 249.329,349.035 247.837,348.605 246.616 C 348.101 245.183,347.536 244.349,346.813 243.973 C 346.093 243.599,345.551 242.802,345.107 241.466 C 344.717 240.291,344.055 239.245,343.451 238.849 C 342.898 238.487,341.907 237.040,341.249 235.634 C 340.474 233.979,339.676 232.883,338.984 232.525 C 337.940 231.985,336.967 230.449,336.967 229.339 C 336.967 229.034,336.477 228.552,335.877 228.267 C 335.222 227.956,334.430 227.003,333.891 225.875 C 333.353 224.748,332.534 223.762,331.838 223.402 C 331.201 223.073,330.555 222.407,330.401 221.922 C 330.247 221.438,329.476 220.379,328.688 219.570 C 327.900 218.761,326.809 217.434,326.264 216.621 C 325.719 215.808,324.450 214.317,323.444 213.309 C 322.439 212.301,321.497 211.124,321.350 210.693 C 321.204 210.263,320.510 209.554,319.809 209.118 C 319.107 208.682,318.266 207.768,317.939 207.087 C 317.611 206.407,316.851 205.663,316.249 205.435 C 315.536 205.165,314.892 204.435,314.403 203.342 C 313.898 202.216,313.250 201.495,312.433 201.152 C 311.763 200.870,310.872 200.076,310.454 199.388 C 310.035 198.700,309.129 197.794,308.440 197.375 C 307.751 196.956,306.928 195.992,306.611 195.234 C 306.294 194.476,305.783 193.855,305.476 193.855 C 304.702 193.855,302.478 191.924,302.478 191.251 C 302.478 190.948,301.751 190.329,300.862 189.876 C 299.804 189.336,299.056 188.595,298.694 187.730 C 298.338 186.878,297.724 186.264,296.965 185.999 C 296.241 185.747,295.506 185.040,295.057 184.164 C 294.641 183.355,293.733 182.444,292.951 182.054 C 292.195 181.677,291.308 180.809,290.981 180.125 C 290.609 179.348,289.890 178.702,289.062 178.402 C 288.295 178.123,287.412 177.370,286.966 176.614 C 286.542 175.895,285.668 175.089,285.024 174.822 C 284.380 174.555,283.477 173.729,283.018 172.986 C 282.559 172.244,281.710 171.377,281.131 171.061 C 280.553 170.745,278.920 169.412,277.502 168.099 C 276.085 166.786,274.707 165.711,274.439 165.710 C 274.172 165.709,273.639 165.218,273.255 164.618 C 272.380 163.250,271.633 162.606,270.346 162.111 C 269.790 161.897,269.018 161.184,268.630 160.528 C 268.236 159.862,267.266 159.070,266.436 158.738 C 265.456 158.346,264.735 157.697,264.326 156.841 C 263.899 155.944,263.294 155.420,262.385 155.160 C 261.583 154.930,260.706 154.248,260.150 153.423 C 259.647 152.677,258.686 151.835,258.014 151.552 C 257.343 151.270,256.146 150.401,255.354 149.622 C 254.562 148.842,253.101 147.786,252.106 147.275 C 248.072 145.202,247.360 138.843,250.999 137.387 C 251.903 137.025,252.960 136.326,253.347 135.833 C 253.735 135.341,255.311 134.431,256.850 133.811 C 258.629 133.095,259.736 132.406,259.891 131.919 C 260.035 131.466,261.175 130.685,262.681 130.010 C 264.082 129.381,265.324 128.616,265.442 128.310 C 265.687 127.670,268.872 125.888,270.417 125.526 C 270.990 125.392,271.752 124.834,272.111 124.286 C 272.470 123.738,273.875 122.773,275.232 122.141 C 276.590 121.509,278.325 120.436,279.088 119.757 C 279.851 119.077,281.125 118.344,281.919 118.127 C 282.720 117.909,283.654 117.288,284.018 116.733 C 284.687 115.712,288.499 113.776,289.841 113.776 C 290.250 113.776,290.585 113.536,290.585 113.243 C 290.585 112.381,291.810 111.517,294.351 110.587 C 295.659 110.109,297.354 109.121,298.117 108.394 C 298.880 107.666,300.292 106.793,301.255 106.453 C 302.218 106.114,303.255 105.480,303.561 105.044 C 304.245 104.067,306.609 102.829,308.451 102.484 C 309.388 102.308,310.033 101.868,310.469 101.108 C 311.068 100.065,314.610 98.315,316.122 98.315 C 316.415 98.315,317.098 97.735,317.638 97.026 C 318.327 96.124,319.267 95.538,320.774 95.074 C 322.026 94.689,323.578 93.814,324.486 92.983 C 325.344 92.197,326.720 91.352,327.544 91.105 C 328.792 90.731,329.108 90.413,329.434 89.203 C 329.682 88.282,330.383 87.301,331.349 86.525 C 332.511 85.591,333.040 84.750,333.574 82.987 C 333.959 81.715,334.817 79.895,335.480 78.944 C 337.909 75.457,337.749 65.821,335.216 63.016 C 334.435 62.152,333.796 61.030,333.796 60.524 C 333.796 60.018,333.424 59.260,332.969 58.840 C 332.514 58.421,331.399 57.328,330.491 56.413 C 329.583 55.497,328.347 54.630,327.744 54.485 C 327.141 54.341,326.249 53.712,325.761 53.089 C 324.742 51.787,320.438 50.714,313.288 49.980 C 309.213 49.562,307.508 49.127,307.052 48.389 C 306.606 47.668,303.962 47.970,301.691 49.001 M307.940 56.646 C 310.946 58.165,311.520 58.884,311.829 61.512 C 312.559 67.724,308.186 72.204,299.703 73.935 C 297.895 74.303,295.751 74.840,294.937 75.127 C 294.124 75.414,290.002 76.222,285.778 76.922 C 281.553 77.623,277.287 78.513,276.297 78.901 C 275.307 79.289,272.364 80.083,269.756 80.667 C 267.148 81.251,263.855 82.227,262.438 82.836 C 261.021 83.445,258.530 84.340,256.902 84.824 C 255.274 85.308,252.955 86.197,251.748 86.801 C 250.541 87.404,248.625 88.202,247.489 88.574 C 246.353 88.946,244.748 89.712,243.921 90.277 C 243.095 90.842,241.348 91.738,240.040 92.269 C 238.731 92.800,236.739 93.842,235.612 94.585 C 234.485 95.328,233.381 95.937,233.159 95.937 C 232.937 95.937,231.599 96.729,230.185 97.697 C 228.771 98.665,226.842 99.850,225.898 100.331 C 224.955 100.811,223.647 101.605,222.993 102.095 C 222.339 102.585,220.555 103.640,219.029 104.438 C 217.502 105.237,215.512 106.332,214.606 106.870 C 210.821 109.117,206.302 107.735,207.873 104.810 C 209.051 102.618,211.530 99.938,216.254 95.753 C 218.870 93.435,221.530 91.056,222.165 90.467 C 222.799 89.878,223.977 88.949,224.782 88.404 C 225.587 87.859,226.852 86.916,227.592 86.308 C 230.525 83.903,234.253 81.301,236.131 80.350 C 237.218 79.799,238.353 79.052,238.653 78.690 C 238.954 78.328,240.280 77.487,241.602 76.820 C 242.923 76.153,244.539 75.204,245.193 74.712 C 245.847 74.219,247.275 73.386,248.365 72.861 C 249.455 72.336,251.060 71.458,251.933 70.911 C 252.805 70.363,254.321 69.603,255.302 69.223 C 256.283 68.842,257.762 68.090,258.588 67.550 C 259.413 67.011,261.465 66.058,263.147 65.434 C 264.828 64.809,267.030 63.831,268.039 63.261 C 269.049 62.692,270.833 61.942,272.004 61.596 C 273.175 61.250,275.222 60.459,276.554 59.838 C 284.377 56.191,303.242 54.273,307.940 56.646 M47.968 63.826 C 47.968 64.322,48.389 64.322,49.158 63.826 C 49.638 63.515,49.582 63.440,48.860 63.435 C 48.370 63.432,47.968 63.608,47.968 63.826 M237.463 98.513 C 237.191 98.840,236.832 99.108,236.664 99.108 C 236.496 99.108,236.256 98.840,236.130 98.513 C 235.964 98.079,236.179 97.919,236.929 97.919 C 237.797 97.919,237.880 98.011,237.463 98.513 M230.106 102.465 C 229.115 103.214,228.741 103.218,228.741 102.478 C 228.741 102.096,229.124 101.883,229.808 101.883 C 230.831 101.883,230.844 101.907,230.106 102.465 M225.751 105.820 C 226.103 106.389,225.267 106.723,224.278 106.409 C 223.417 106.135,223.414 106.117,224.182 105.817 C 225.268 105.392,225.487 105.393,225.751 105.820 M218.831 109.798 C 218.831 110.328,217.314 111.090,216.840 110.798 C 215.978 110.265,216.470 109.415,217.641 109.415 C 218.295 109.415,218.831 109.587,218.831 109.798 M210.795 114.007 C 209.814 114.539,209.603 114.537,208.823 113.991 C 207.987 113.405,208.034 113.380,209.922 113.395 L 211.893 113.411 210.795 114.007 " stroke="none" fill="#139485" fillRule="evenodd"/>
        <path id="path4" d="M289.990 56.516 C 282.475 57.709,279.591 58.422,276.554 59.838 C 275.222 60.459,273.175 61.250,272.004 61.596 C 270.833 61.942,269.049 62.692,268.039 63.261 C 267.030 63.831,264.828 64.809,263.147 65.434 C 261.465 66.058,259.413 67.011,258.588 67.550 C 257.762 68.090,256.283 68.842,255.302 69.223 C 254.321 69.603,252.805 70.363,251.933 70.911 C 251.060 71.458,249.455 72.336,248.365 72.861 C 247.275 73.386,245.847 74.219,245.193 74.712 C 244.539 75.204,242.923 76.153,241.602 76.820 C 240.280 77.487,238.954 78.328,238.653 78.690 C 238.353 79.052,237.218 79.799,236.131 80.350 C 234.253 81.301,230.525 83.903,227.592 86.308 C 226.852 86.916,225.587 87.859,224.782 88.404 C 223.977 88.949,222.799 89.878,222.165 90.467 C 221.530 91.056,218.870 93.435,216.254 95.753 C 211.530 99.938,209.051 102.618,207.873 104.810 C 206.302 107.735,210.821 109.117,214.606 106.870 C 215.512 106.332,217.502 105.237,219.029 104.438 C 220.555 103.640,222.339 102.585,222.993 102.095 C 223.647 101.605,224.955 100.811,225.898 100.331 C 226.842 99.850,228.771 98.665,230.185 97.697 C 231.599 96.729,232.937 95.937,233.159 95.937 C 233.381 95.937,234.485 95.328,235.612 94.585 C 236.739 93.842,238.731 92.800,240.040 92.269 C 241.348 91.738,243.095 90.842,243.921 90.277 C 244.748 89.712,246.353 88.946,247.489 88.574 C 248.625 88.202,250.541 87.404,251.748 86.801 C 252.955 86.197,255.274 85.308,256.902 84.824 C 258.530 84.340,261.021 83.445,262.438 82.836 C 263.855 82.227,267.148 81.251,269.756 80.667 C 272.364 80.083,275.307 79.289,276.297 78.901 C 277.287 78.513,281.553 77.623,285.778 76.922 C 290.002 76.222,294.124 75.414,294.937 75.127 C 295.751 74.840,297.895 74.303,299.703 73.935 C 308.186 72.204,312.559 67.724,311.829 61.512 C 311.150 55.734,304.498 54.212,289.990 56.516 " stroke="none" fill="#72d4d3" fillRule="evenodd"/>
        <path id="path7" d="M295.144 45.433 C 289.292 46.103,284.659 47.025,282.502 47.949 C 281.604 48.334,279.175 49.045,277.105 49.528 C 275.034 50.012,272.359 50.902,271.160 51.506 C 269.960 52.110,267.998 52.914,266.799 53.294 C 264.696 53.959,258.999 56.532,255.302 58.487 C 254.321 59.005,252.180 60.076,250.545 60.866 C 248.910 61.655,247.213 62.636,246.774 63.044 C 246.335 63.453,245.086 64.176,243.999 64.651 C 242.912 65.127,241.219 66.095,240.238 66.802 C 239.257 67.510,237.551 68.543,236.447 69.098 C 235.343 69.653,234.194 70.403,233.894 70.765 C 233.593 71.126,232.319 71.942,231.062 72.576 C 229.804 73.211,228.188 74.243,227.470 74.869 C 226.752 75.496,225.451 76.372,224.579 76.816 C 223.707 77.260,222.593 78.087,222.104 78.653 C 221.615 79.219,221.058 79.683,220.866 79.683 C 220.450 79.683,214.115 84.242,211.949 86.101 C 211.108 86.823,209.801 87.793,209.046 88.258 C 208.291 88.722,207.408 89.482,207.083 89.945 C 206.759 90.408,205.925 91.081,205.232 91.440 C 203.955 92.100,201.869 93.803,197.054 98.117 C 195.594 99.425,193.474 100.928,192.343 101.456 L 190.286 102.416 189.394 101.579 C 188.904 101.119,187.215 100.194,185.640 99.524 C 184.065 98.854,182.134 97.870,181.349 97.337 C 180.563 96.804,178.908 95.992,177.671 95.533 C 176.434 95.074,174.771 94.252,173.976 93.707 C 173.181 93.161,171.218 92.258,169.615 91.700 C 168.012 91.143,166.201 90.267,165.591 89.753 C 164.602 88.922,161.156 87.611,159.956 87.611 C 159.706 87.611,158.713 87.092,157.749 86.456 C 156.785 85.820,154.480 84.820,152.626 84.232 C 150.773 83.645,148.534 82.751,147.652 82.247 C 146.769 81.742,144.404 80.856,142.397 80.279 C 140.390 79.701,137.991 78.807,137.065 78.292 C 136.139 77.777,133.776 76.960,131.814 76.477 C 129.851 75.994,127.399 75.177,126.364 74.662 C 125.329 74.146,122.142 73.197,119.282 72.552 C 116.422 71.907,113.879 71.213,113.631 71.010 C 112.895 70.404,109.086 69.435,104.856 68.776 C 102.676 68.436,99.376 67.643,97.522 67.015 C 95.191 66.224,91.708 65.550,86.224 64.829 C 81.863 64.256,77.493 63.537,76.511 63.230 C 73.774 62.375,69.739 61.929,58.032 61.185 C 45.522 60.389,43.863 60.532,42.717 62.503 L 41.988 63.758 44.217 66.256 C 45.443 67.629,47.165 69.162,48.045 69.662 C 48.924 70.161,50.185 71.026,50.847 71.583 C 51.509 72.140,53.061 73.105,54.295 73.728 C 55.529 74.351,56.766 75.135,57.044 75.470 C 57.322 75.805,58.382 76.564,59.399 77.156 C 60.417 77.749,62.052 78.897,63.033 79.707 C 64.014 80.517,65.434 81.492,66.189 81.873 C 66.944 82.254,67.897 82.991,68.306 83.511 C 68.715 84.031,69.613 84.740,70.303 85.087 C 70.992 85.434,72.099 86.233,72.763 86.862 C 73.427 87.491,74.701 88.497,75.595 89.097 C 77.564 90.420,80.519 92.711,83.520 95.243 C 84.748 96.278,85.977 97.126,86.250 97.126 C 86.524 97.126,87.177 97.635,87.700 98.257 C 88.224 98.880,89.176 99.715,89.817 100.113 C 90.457 100.511,91.537 101.351,92.216 101.980 C 92.895 102.609,94.256 103.692,95.240 104.386 C 98.111 106.412,101.195 108.855,102.478 110.117 C 103.132 110.761,104.202 111.612,104.856 112.008 C 105.510 112.404,106.670 113.310,107.433 114.021 C 108.196 114.733,109.479 115.816,110.283 116.428 C 112.975 118.478,116.735 121.443,118.198 122.670 C 118.995 123.338,120.654 124.688,121.884 125.669 C 123.115 126.650,125.159 128.345,126.427 129.435 C 127.695 130.525,129.861 132.309,131.241 133.399 C 132.620 134.490,134.473 136.019,135.358 136.798 C 136.243 137.577,137.681 138.736,138.553 139.374 C 139.425 140.013,140.361 140.831,140.632 141.193 C 140.903 141.555,142.008 142.395,143.086 143.058 C 144.622 144.004,145.137 144.591,145.465 145.770 C 146.144 148.216,146.056 148.389,141.969 152.678 C 139.814 154.939,135.950 159.108,133.383 161.943 C 130.816 164.777,128.400 167.403,128.014 167.778 C 127.628 168.154,126.832 169.091,126.244 169.861 C 125.657 170.632,124.463 172.020,123.592 172.945 C 122.720 173.871,121.181 175.557,120.171 176.693 C 119.161 177.828,117.532 179.628,116.551 180.692 C 114.588 182.822,112.307 185.444,109.718 188.547 C 108.788 189.661,107.128 191.623,106.027 192.908 C 104.927 194.192,103.500 195.956,102.856 196.829 C 102.212 197.701,101.371 198.649,100.986 198.936 C 100.601 199.223,99.930 200.157,99.494 201.011 C 99.058 201.866,98.276 202.844,97.755 203.185 C 97.235 203.526,96.320 204.555,95.723 205.470 C 95.126 206.386,94.220 207.582,93.710 208.127 C 92.742 209.162,89.931 212.818,87.689 215.959 C 86.969 216.969,86.030 218.040,85.603 218.339 C 85.175 218.638,84.489 219.540,84.077 220.343 C 83.665 221.147,82.848 222.250,82.261 222.795 C 81.674 223.340,80.915 224.321,80.575 224.975 C 80.236 225.629,79.295 226.967,78.484 227.948 C 77.674 228.930,76.540 230.554,75.965 231.557 C 75.389 232.561,74.544 233.720,74.087 234.134 C 73.630 234.548,72.937 235.510,72.547 236.274 C 72.157 237.037,71.449 238.013,70.973 238.444 C 70.497 238.874,69.497 240.318,68.751 241.652 C 68.005 242.987,67.018 244.418,66.558 244.834 C 66.098 245.250,65.315 246.392,64.817 247.374 C 64.319 248.355,63.516 249.514,63.033 249.950 C 62.551 250.387,61.795 251.457,61.354 252.329 C 60.913 253.201,59.773 254.958,58.819 256.234 C 57.866 257.509,57.086 258.785,57.086 259.070 C 57.086 259.355,56.452 260.347,55.676 261.275 C 54.901 262.203,53.753 264.063,53.124 265.407 C 52.496 266.751,51.688 268.094,51.330 268.391 C 50.972 268.688,50.162 269.955,49.531 271.206 C 48.899 272.457,48.189 273.600,47.952 273.746 C 47.715 273.893,46.813 275.461,45.948 277.232 C 45.083 279.003,44.051 280.814,43.655 281.257 C 43.259 281.699,42.363 283.307,41.663 284.830 C 40.963 286.353,40.128 287.890,39.806 288.245 C 39.485 288.600,38.609 290.367,37.859 292.170 C 37.110 293.974,36.243 295.738,35.934 296.090 C 35.624 296.442,34.898 298.067,34.320 299.703 C 33.743 301.338,32.913 303.168,32.478 303.770 C 32.042 304.372,31.057 306.668,30.290 308.873 C 29.522 311.078,28.647 313.261,28.346 313.725 C 28.044 314.189,27.247 316.477,26.575 318.809 C 25.902 321.141,24.932 324.173,24.419 325.548 C 22.597 330.427,21.269 341.063,22.202 343.315 C 23.394 346.192,28.472 345.270,31.546 341.617 C 32.112 340.944,33.318 339.908,34.226 339.314 C 36.856 337.594,52.654 321.671,54.871 318.505 C 55.166 318.084,56.249 316.848,57.278 315.758 C 60.197 312.668,62.283 310.364,64.222 308.089 C 65.203 306.939,66.809 305.159,67.790 304.135 C 68.771 303.111,71.179 300.500,73.142 298.333 C 77.162 293.894,81.160 289.543,84.450 286.026 C 85.674 284.718,88.161 282.042,89.977 280.079 C 91.793 278.117,94.991 274.717,97.085 272.525 C 99.179 270.332,101.179 268.191,101.530 267.767 C 101.881 267.344,102.683 266.544,103.314 265.990 C 103.944 265.436,104.849 264.545,105.324 264.008 C 105.800 263.472,106.692 262.562,107.307 261.988 C 107.921 261.413,109.316 259.926,110.406 258.684 C 111.497 257.443,112.924 255.906,113.578 255.271 C 114.232 254.635,114.919 253.954,115.104 253.757 C 115.542 253.293,118.506 250.328,118.970 249.891 C 119.167 249.706,119.835 249.019,120.455 248.365 C 121.075 247.711,122.011 246.786,122.535 246.311 C 123.060 245.836,124.381 244.443,125.471 243.216 C 128.916 239.339,152.547 216.028,158.375 210.758 C 165.339 204.461,173.540 197.389,175.223 196.231 C 175.986 195.705,176.849 194.948,177.140 194.549 C 177.431 194.149,178.413 193.355,179.320 192.785 C 180.228 192.214,181.205 191.418,181.491 191.015 C 181.777 190.612,182.555 190.001,183.221 189.657 C 183.887 189.313,185.169 188.356,186.071 187.532 C 189.032 184.825,190.066 184.498,192.328 185.558 C 193.386 186.053,194.252 186.587,194.252 186.743 C 194.252 186.899,196.080 188.898,198.315 191.184 C 203.773 196.767,206.756 200.269,210.827 205.874 C 211.331 206.568,212.182 207.595,212.717 208.155 C 213.252 208.716,214.267 210.079,214.972 211.183 C 215.677 212.287,217.286 214.683,218.548 216.506 C 219.809 218.330,221.236 220.410,221.719 221.130 C 222.202 221.850,223.177 223.277,223.886 224.302 C 224.595 225.326,225.666 227.036,226.265 228.101 C 226.864 229.166,227.820 230.593,228.391 231.273 C 228.961 231.952,229.833 233.310,230.328 234.291 C 230.823 235.273,231.918 237.041,232.760 238.221 C 233.602 239.401,234.291 240.599,234.291 240.883 C 234.291 241.167,234.818 242.000,235.462 242.733 C 236.106 243.466,237.283 245.301,238.078 246.810 C 238.873 248.319,239.842 249.911,240.232 250.347 C 240.622 250.783,241.317 251.888,241.775 252.802 C 242.234 253.716,243.325 255.485,244.199 256.733 C 245.073 257.981,245.788 259.226,245.788 259.500 C 245.788 259.774,246.406 260.808,247.161 261.797 C 247.916 262.786,248.993 264.502,249.554 265.610 C 250.115 266.717,251.192 268.433,251.947 269.422 C 252.702 270.411,253.320 271.456,253.320 271.745 C 253.320 272.033,253.965 273.224,254.754 274.390 C 255.542 275.557,256.705 277.582,257.338 278.890 C 257.971 280.198,258.730 281.450,259.024 281.671 C 259.318 281.892,260.192 283.329,260.965 284.865 C 261.738 286.401,262.681 287.914,263.060 288.229 C 263.439 288.543,264.230 289.871,264.817 291.179 C 265.404 292.488,266.194 293.816,266.574 294.131 C 266.953 294.445,267.947 296.061,268.781 297.721 C 269.615 299.380,270.583 300.975,270.932 301.264 C 271.280 301.553,271.918 302.586,272.349 303.560 C 272.779 304.534,273.736 306.161,274.475 307.175 C 275.213 308.189,276.183 309.744,276.631 310.631 C 277.078 311.518,277.718 312.470,278.051 312.747 C 278.385 313.024,279.366 314.540,280.231 316.116 C 281.095 317.691,282.098 319.226,282.459 319.525 C 282.819 319.824,283.537 320.902,284.053 321.921 C 284.569 322.939,285.418 324.288,285.941 324.919 C 286.463 325.549,287.360 326.868,287.934 327.849 C 288.508 328.831,289.445 330.168,290.016 330.823 C 290.588 331.477,291.327 332.547,291.658 333.201 C 291.990 333.855,292.701 334.862,293.240 335.438 C 293.778 336.013,294.783 337.288,295.474 338.269 C 299.457 343.928,308.678 353.332,311.759 354.875 C 312.650 355.321,313.826 356.090,314.371 356.583 C 315.341 357.461,319.947 359.641,324.281 361.276 C 329.120 363.101,343.393 362.633,347.473 360.517 C 348.563 359.951,350.389 359.137,351.530 358.707 C 352.671 358.277,354.338 357.313,355.234 356.565 C 356.131 355.816,357.027 355.203,357.227 355.203 C 357.933 355.203,364.064 349.019,366.298 346.055 C 373.870 336.005,378.287 315.971,375.643 303.667 C 375.291 302.032,374.730 299.267,374.395 297.522 C 372.810 289.271,372.120 286.334,371.462 285.045 C 371.070 284.276,370.265 282.042,369.673 280.079 C 369.080 278.117,368.256 275.951,367.841 275.267 C 367.426 274.583,366.645 272.806,366.105 271.319 C 365.566 269.832,364.521 267.627,363.783 266.419 C 363.046 265.211,362.225 263.548,361.960 262.724 C 361.694 261.900,360.849 260.294,360.082 259.156 C 359.316 258.018,358.404 256.373,358.057 255.500 C 357.710 254.628,356.857 253.112,356.163 252.131 C 355.468 251.150,354.447 249.444,353.893 248.340 C 353.339 247.236,352.592 246.088,352.232 245.790 C 351.872 245.491,351.208 244.521,350.757 243.634 C 350.305 242.747,349.362 241.308,348.661 240.436 C 347.961 239.564,346.914 238.029,346.336 237.026 C 345.758 236.022,344.922 234.872,344.479 234.471 C 344.035 234.069,343.206 232.884,342.635 231.836 C 342.065 230.788,341.451 229.931,341.271 229.931 C 341.090 229.931,340.454 229.172,339.857 228.246 C 338.302 225.832,334.008 220.505,329.231 215.064 C 328.466 214.192,326.994 212.509,325.961 211.323 C 324.928 210.138,323.280 208.308,322.299 207.258 C 321.318 206.207,319.623 204.354,318.533 203.140 C 316.184 200.524,296.823 181.132,293.432 177.998 C 282.258 167.673,280.650 166.214,277.304 163.369 C 275.996 162.257,274.123 160.634,273.142 159.762 C 268.807 155.911,263.746 151.744,260.718 149.531 C 260.029 149.027,258.930 148.119,258.276 147.512 C 257.621 146.905,256.428 146.016,255.624 145.536 C 252.000 143.373,252.408 140.226,256.587 138.108 C 257.625 137.582,258.474 137.004,258.474 136.823 C 258.474 136.641,259.230 136.154,260.155 135.739 C 261.079 135.324,262.611 134.395,263.558 133.674 C 264.505 132.952,266.291 131.820,267.526 131.157 C 268.761 130.495,270.129 129.641,270.565 129.261 C 271.001 128.880,272.517 127.906,273.935 127.094 C 275.352 126.283,277.047 125.259,277.701 124.819 C 279.206 123.806,282.682 121.674,285.171 120.237 C 286.227 119.627,287.655 118.733,288.343 118.251 C 289.031 117.768,290.664 116.812,291.972 116.126 C 293.280 115.439,294.886 114.477,295.540 113.987 C 296.194 113.497,297.711 112.605,298.910 112.005 C 300.109 111.405,301.447 110.591,301.883 110.196 C 302.319 109.801,303.918 108.833,305.435 108.045 C 306.953 107.257,308.469 106.371,308.805 106.076 C 309.141 105.781,310.575 104.965,311.992 104.263 C 313.409 103.561,314.936 102.650,315.384 102.240 C 315.832 101.829,317.348 100.939,318.753 100.262 C 320.159 99.585,321.591 98.780,321.937 98.473 C 322.283 98.165,323.620 97.376,324.910 96.719 C 327.875 95.209,330.778 92.910,332.009 91.099 C 332.534 90.326,333.205 89.601,333.500 89.488 C 333.795 89.374,334.611 88.237,335.313 86.960 C 336.015 85.683,336.940 84.192,337.369 83.647 C 338.308 82.453,340.530 73.886,340.607 71.160 C 340.700 67.920,338.513 61.077,336.460 58.179 C 328.905 47.514,314.848 43.178,295.144 45.433 M307.052 48.389 C 307.508 49.127,309.213 49.562,313.288 49.980 C 320.438 50.714,324.742 51.787,325.761 53.089 C 326.249 53.712,327.141 54.341,327.744 54.485 C 328.347 54.630,329.583 55.497,330.491 56.413 C 331.399 57.328,332.514 58.421,332.969 58.840 C 333.424 59.260,333.796 60.018,333.796 60.524 C 333.796 61.030,334.435 62.152,335.216 63.016 C 337.749 65.821,337.909 75.457,335.480 78.944 C 334.817 79.895,333.959 81.715,333.574 82.987 C 333.040 84.750,332.511 85.591,331.349 86.525 C 330.383 87.301,329.682 88.282,329.434 89.203 C 329.108 90.413,328.792 90.731,327.544 91.105 C 326.720 91.352,325.344 92.197,324.486 92.983 C 323.578 93.814,322.026 94.689,320.774 95.074 C 319.267 95.538,318.327 96.124,317.638 97.026 C 317.098 97.735,316.415 98.315,316.122 98.315 C 314.610 98.315,311.068 100.065,310.469 101.108 C 310.033 101.868,309.388 102.308,308.451 102.484 C 306.609 102.829,304.245 104.067,303.561 105.044 C 303.255 105.480,302.218 106.114,301.255 106.453 C 300.292 106.793,298.880 107.666,298.117 108.394 C 297.354 109.121,295.659 110.109,294.351 110.587 C 291.810 111.517,290.585 112.381,290.585 113.243 C 290.585 113.536,290.250 113.776,289.841 113.776 C 288.499 113.776,284.687 115.712,284.018 116.733 C 283.654 117.288,282.720 117.909,281.919 118.127 C 281.125 118.344,279.851 119.077,279.088 119.757 C 278.325 120.436,276.590 121.509,275.232 122.141 C 273.875 122.773,272.470 123.738,272.111 124.286 C 271.752 124.834,270.990 125.392,270.417 125.526 C 268.872 125.888,265.687 127.670,265.442 128.310 C 265.324 128.616,264.082 129.381,262.681 130.010 C 261.175 130.685,260.035 131.466,259.891 131.919 C 259.736 132.406,258.629 133.095,256.850 133.811 C 255.311 134.431,253.735 135.341,253.347 135.833 C 252.960 136.326,251.903 137.025,250.999 137.387 C 247.360 138.843,248.072 145.202,252.106 147.275 C 253.101 147.786,254.562 148.842,255.354 149.622 C 256.146 150.401,257.343 151.270,258.014 151.552 C 258.686 151.835,259.647 152.677,260.150 153.423 C 260.706 154.248,261.583 154.930,262.385 155.160 C 263.294 155.420,263.899 155.944,264.326 156.841 C 264.735 157.697,265.456 158.346,266.436 158.738 C 267.266 159.070,268.236 159.862,268.630 160.528 C 269.018 161.184,269.790 161.897,270.346 162.111 C 271.633 162.606,272.380 163.250,273.255 164.618 C 273.639 165.218,274.172 165.709,274.439 165.710 C 274.707 165.711,276.085 166.786,277.502 168.099 C 278.920 169.412,280.553 170.745,281.131 171.061 C 281.710 171.377,282.559 172.244,283.018 172.986 C 283.477 173.729,284.380 174.555,285.024 174.822 C 285.668 175.089,286.542 175.895,286.966 176.614 C 287.412 177.370,288.295 178.123,289.062 178.402 C 289.890 178.702,290.609 179.348,290.981 180.125 C 291.308 180.809,292.195 181.677,292.951 182.054 C 293.733 182.444,294.641 183.355,295.057 184.164 C 295.506 185.040,296.241 185.747,296.965 185.999 C 297.724 186.264,298.338 186.878,298.694 187.730 C 299.056 188.595,299.804 189.336,300.862 189.876 C 301.751 190.329,302.478 190.948,302.478 191.251 C 302.478 191.924,304.702 193.855,305.476 193.855 C 305.783 193.855,306.294 194.476,306.611 195.234 C 306.928 195.992,307.751 196.956,308.440 197.375 C 309.129 197.794,310.035 198.700,310.454 199.388 C 310.872 200.076,311.763 200.870,312.433 201.152 C 313.250 201.495,313.898 202.216,314.403 203.342 C 314.892 204.435,315.536 205.165,316.249 205.435 C 316.851 205.663,317.611 206.407,317.939 207.087 C 318.266 207.768,319.107 208.682,319.809 209.118 C 320.510 209.554,321.204 210.263,321.350 210.693 C 321.497 211.124,322.439 212.301,323.444 213.309 C 324.450 214.317,325.719 215.808,326.264 216.621 C 326.809 217.434,327.900 218.761,328.688 219.570 C 329.476 220.379,330.247 221.438,330.401 221.922 C 330.555 222.407,331.201 223.073,331.838 223.402 C 332.534 223.762,333.353 224.748,333.891 225.875 C 334.430 227.003,335.222 227.956,335.877 228.267 C 336.477 228.552,336.967 229.034,336.967 229.339 C 336.967 230.449,337.940 231.985,338.984 232.525 C 339.676 232.883,340.474 233.979,341.249 235.634 C 341.907 237.040,342.898 238.487,343.451 238.849 C 344.055 239.245,344.717 240.291,345.107 241.466 C 345.551 242.802,346.093 243.599,346.813 243.973 C 347.536 244.349,348.101 245.183,348.605 246.616 C 349.035 247.837,349.967 249.329,350.846 250.198 C 351.883 251.225,352.434 252.182,352.619 253.277 C 352.790 254.287,353.432 255.487,354.381 256.571 C 355.207 257.513,356.190 259.251,356.578 260.456 C 356.965 261.655,357.796 263.182,358.426 263.849 C 359.148 264.612,359.848 266.056,360.317 267.749 C 360.795 269.471,361.487 270.888,362.243 271.691 C 363.169 272.675,363.609 273.769,364.293 276.794 C 364.957 279.729,365.429 280.927,366.279 281.838 C 367.238 282.863,367.492 283.661,368.081 287.489 C 368.461 289.954,369.289 293.281,369.934 294.933 C 372.696 302.006,372.780 323.867,370.067 329.602 C 369.527 330.744,368.718 333.151,368.270 334.953 C 367.654 337.429,367.076 338.706,365.903 340.191 C 365.049 341.271,364.232 342.789,364.086 343.564 C 363.882 344.651,363.558 345.065,362.670 345.375 C 361.947 345.627,361.228 346.344,360.741 347.299 C 360.277 348.208,359.432 349.074,358.642 349.449 C 357.886 349.807,357.049 350.644,356.688 351.401 C 356.201 352.422,355.731 352.786,354.636 352.992 C 353.787 353.151,352.538 353.887,351.533 354.821 C 350.530 355.753,349.292 356.483,348.464 356.631 C 347.701 356.768,345.382 357.214,343.310 357.623 C 339.132 358.449,330.942 358.642,328.640 357.970 C 327.878 357.748,325.686 357.310,323.769 356.996 C 320.764 356.504,320.055 356.230,318.626 355.007 C 317.715 354.227,316.071 353.327,314.974 353.008 C 313.428 352.559,312.863 352.168,312.468 351.275 C 312.135 350.523,311.404 349.900,310.366 349.485 C 309.229 349.030,308.656 348.506,308.356 347.647 C 308.083 346.864,307.435 346.210,306.496 345.770 C 305.602 345.351,304.840 344.606,304.488 343.808 C 304.177 343.100,303.434 342.305,302.837 342.041 C 302.151 341.737,301.446 340.884,300.921 339.722 C 300.444 338.666,299.675 337.694,299.115 337.439 C 298.578 337.194,297.894 336.407,297.594 335.690 C 297.294 334.972,296.399 333.716,295.605 332.898 C 294.811 332.081,293.628 330.356,292.977 329.066 C 292.326 327.775,291.454 326.612,291.040 326.481 C 290.615 326.346,289.983 325.444,289.587 324.408 C 289.202 323.399,288.306 321.931,287.595 321.144 C 286.885 320.358,285.819 318.691,285.227 317.439 C 284.634 316.188,284.004 315.164,283.827 315.164 C 283.180 315.164,282.271 313.901,281.884 312.465 C 281.666 311.655,280.780 310.211,279.916 309.256 C 279.052 308.301,278.140 306.966,277.888 306.287 C 276.869 303.543,276.683 303.241,275.744 302.814 C 275.142 302.539,274.664 301.900,274.499 301.150 C 274.094 299.308,272.750 296.949,271.719 296.273 C 271.156 295.904,270.568 294.873,270.200 293.609 C 269.806 292.253,269.221 291.266,268.492 290.727 C 267.753 290.181,267.065 289.008,266.433 287.218 C 265.733 285.234,265.192 284.362,264.368 283.890 C 263.691 283.503,263.150 282.782,262.995 282.061 C 262.621 280.332,261.475 278.237,260.307 277.146 C 259.747 276.624,259.016 275.256,258.682 274.108 C 258.314 272.843,257.646 271.656,256.986 271.095 C 256.028 270.280,255.386 269.091,254.076 265.703 C 253.885 265.209,253.288 264.605,252.751 264.360 C 252.161 264.091,251.671 263.448,251.515 262.738 C 251.049 260.617,249.775 258.183,248.793 257.540 C 248.264 257.193,247.716 256.503,247.575 256.007 C 246.948 253.786,246.397 252.849,245.419 252.343 C 244.618 251.929,244.145 251.120,243.430 248.938 C 242.700 246.710,242.240 245.934,241.354 245.436 C 240.728 245.085,240.124 244.351,240.012 243.806 C 239.664 242.111,238.203 239.502,237.254 238.880 C 236.743 238.545,236.051 237.394,235.669 236.243 C 235.187 234.794,234.655 234.012,233.837 233.552 C 233.203 233.196,232.574 232.458,232.440 231.913 C 232.027 230.235,230.384 227.240,229.559 226.663 C 229.129 226.361,228.430 225.306,228.006 224.317 C 227.582 223.328,226.791 222.169,226.248 221.742 C 225.706 221.315,224.863 219.995,224.376 218.808 C 223.889 217.621,222.888 216.096,222.151 215.418 C 221.413 214.740,220.573 213.491,220.283 212.643 C 219.962 211.705,219.270 210.789,218.515 210.307 C 217.833 209.871,217.268 209.330,217.260 209.105 C 217.236 208.469,214.795 204.881,213.556 203.663 C 212.944 203.061,212.256 202.030,212.026 201.371 C 211.797 200.713,211.091 199.907,210.459 199.579 C 209.782 199.229,208.966 198.254,208.474 197.209 C 207.917 196.024,207.317 195.352,206.671 195.190 C 206.016 195.026,205.498 194.435,205.070 193.364 C 204.618 192.236,204.057 191.623,203.114 191.229 C 202.234 190.861,201.596 190.208,201.207 189.278 C 200.820 188.352,200.181 187.695,199.312 187.332 C 198.421 186.960,197.783 186.290,197.320 185.242 C 196.867 184.214,196.175 183.478,195.248 183.035 C 194.482 182.670,193.855 182.211,193.855 182.014 C 193.855 181.528,191.361 180.377,190.307 180.377 C 189.839 180.377,188.823 180.990,188.051 181.741 C 187.278 182.491,186.146 183.215,185.535 183.349 C 184.304 183.619,183.378 184.501,182.993 185.767 C 182.833 186.292,182.175 186.768,181.205 187.058 C 180.316 187.325,179.083 188.169,178.274 189.064 C 177.506 189.915,176.048 191.096,175.034 191.691 C 174.020 192.285,172.898 193.218,172.540 193.764 C 172.182 194.310,171.292 195.006,170.561 195.311 C 169.830 195.617,168.874 196.474,168.436 197.217 C 167.934 198.067,167.131 198.736,166.270 199.020 C 165.335 199.328,164.670 199.921,164.175 200.886 C 163.681 201.849,163.020 202.439,162.101 202.736 C 161.148 203.044,160.541 203.606,160.027 204.658 C 159.627 205.476,159.030 206.145,158.699 206.145 C 158.368 206.145,157.268 206.929,156.254 207.887 C 152.866 211.088,148.077 215.853,147.241 216.852 C 146.786 217.395,145.033 219.088,143.345 220.614 C 139.659 223.947,126.429 237.136,123.555 240.343 C 120.999 243.195,116.791 247.481,111.034 253.098 C 108.589 255.483,106.352 258.001,106.062 258.693 C 105.726 259.499,105.159 260.047,104.490 260.215 C 103.915 260.359,103.095 261.051,102.669 261.752 C 102.243 262.453,101.222 263.482,100.402 264.038 C 99.581 264.595,98.680 265.526,98.399 266.109 C 98.118 266.692,97.355 267.484,96.702 267.869 C 96.050 268.255,95.237 269.197,94.896 269.964 C 94.530 270.789,93.767 271.600,93.026 271.952 C 92.337 272.279,91.465 273.166,91.088 273.922 C 90.709 274.680,89.791 275.611,89.040 275.996 C 88.160 276.447,87.523 277.153,87.241 277.990 C 86.955 278.835,86.357 279.493,85.523 279.881 C 84.806 280.214,83.943 281.074,83.564 281.833 C 83.177 282.609,82.365 283.409,81.667 283.703 C 80.893 284.028,80.233 284.726,79.865 285.607 C 79.532 286.405,78.764 287.267,78.065 287.628 C 77.368 287.989,76.598 288.852,76.267 289.642 C 75.944 290.416,75.099 291.374,74.348 291.816 C 73.610 292.252,72.823 293.135,72.599 293.778 C 72.368 294.440,71.573 295.313,70.769 295.788 C 69.987 296.249,69.083 297.137,68.760 297.761 C 68.437 298.385,67.624 299.300,66.952 299.795 C 66.280 300.289,65.496 301.140,65.209 301.685 C 64.922 302.230,63.691 303.742,62.473 305.046 C 61.254 306.349,60.258 307.527,60.258 307.664 C 60.258 308.072,58.462 309.882,57.598 310.345 C 57.155 310.582,56.489 311.416,56.118 312.198 C 55.747 312.981,55.016 313.816,54.493 314.054 C 53.971 314.292,53.193 315.195,52.764 316.062 C 52.335 316.929,51.427 317.977,50.745 318.392 C 50.064 318.806,49.244 319.772,48.924 320.538 C 48.604 321.304,47.939 322.084,47.445 322.272 C 46.473 322.642,45.665 323.483,44.999 324.819 C 44.766 325.287,44.084 325.904,43.484 326.192 C 42.884 326.480,41.964 327.395,41.440 328.226 C 40.886 329.103,39.971 329.916,39.258 330.165 C 38.449 330.447,37.843 331.041,37.481 331.907 C 37.130 332.746,36.410 333.471,35.490 333.910 C 34.545 334.361,33.851 335.072,33.471 335.980 C 33.144 336.764,32.611 337.364,32.243 337.364 C 31.885 337.364,30.883 338.109,30.016 339.020 C 28.459 340.657,25.292 341.766,24.738 340.868 C 24.622 340.682,25.150 338.702,25.910 336.469 C 26.679 334.207,27.639 330.148,28.077 327.305 C 28.609 323.850,29.111 321.865,29.631 321.160 C 30.490 319.995,31.474 317.207,32.137 314.060 C 32.380 312.908,33.143 311.124,33.832 310.096 C 34.521 309.067,35.431 306.888,35.852 305.253 C 36.370 303.248,36.915 302.047,37.527 301.564 C 38.400 300.877,40.040 296.536,40.040 294.913 C 40.040 294.505,40.471 293.888,40.998 293.543 C 41.861 292.978,44.004 288.554,44.004 287.339 C 44.004 287.084,44.545 286.417,45.206 285.856 C 46.004 285.179,46.729 283.908,47.365 282.072 C 47.967 280.332,48.687 279.042,49.307 278.590 C 49.854 278.191,50.582 276.998,50.946 275.902 C 51.306 274.818,52.290 273.193,53.133 272.289 C 54.079 271.275,54.845 269.949,55.136 268.822 C 55.467 267.541,55.961 266.761,56.793 266.204 C 57.876 265.479,58.770 263.773,59.350 261.324 C 59.469 260.820,60.034 260.119,60.606 259.766 C 62.067 258.864,62.636 258.078,62.636 256.965 C 62.636 256.390,63.165 255.505,63.954 254.761 C 65.293 253.499,66.666 251.155,67.121 249.356 C 67.259 248.811,67.900 248.068,68.546 247.704 C 69.353 247.251,69.878 246.516,70.225 245.359 C 70.548 244.282,71.108 243.457,71.777 243.073 C 72.354 242.742,73.253 241.569,73.776 240.465 C 74.299 239.361,75.469 237.623,76.374 236.603 C 77.280 235.582,78.138 234.216,78.280 233.567 C 78.456 232.768,78.911 232.232,79.689 231.910 C 80.500 231.574,81.037 230.912,81.517 229.657 C 81.890 228.679,82.612 227.606,83.120 227.273 C 84.038 226.672,84.509 225.974,85.964 223.058 C 86.381 222.221,87.261 221.209,87.919 220.809 C 88.628 220.378,89.307 219.501,89.586 218.656 C 89.884 217.751,90.487 217.008,91.236 216.621 C 91.964 216.245,92.693 215.364,93.138 214.325 C 93.536 213.398,94.304 212.350,94.846 211.994 C 95.388 211.639,96.299 210.551,96.871 209.575 C 97.443 208.600,98.609 207.096,99.462 206.234 C 100.316 205.372,101.281 204.152,101.608 203.523 C 101.935 202.893,102.739 201.984,103.395 201.501 C 104.051 201.018,104.788 200.037,105.034 199.321 C 105.283 198.596,106.046 197.663,106.754 197.217 C 107.455 196.776,108.303 195.834,108.639 195.122 C 108.975 194.411,109.806 193.490,110.486 193.076 C 111.167 192.663,111.848 191.911,112.000 191.405 C 112.153 190.899,113.058 189.683,114.011 188.702 C 114.964 187.721,116.918 185.580,118.353 183.944 C 119.788 182.309,121.734 180.168,122.678 179.187 C 123.621 178.206,124.510 177.015,124.652 176.540 C 124.795 176.065,125.518 175.319,126.260 174.881 C 127.002 174.444,127.968 173.381,128.407 172.521 C 128.923 171.510,129.569 170.865,130.234 170.698 C 130.942 170.520,131.472 169.948,131.935 168.864 C 132.376 167.829,133.073 167.052,133.969 166.598 C 134.872 166.139,135.478 165.460,135.768 164.578 C 136.071 163.658,136.606 163.081,137.508 162.702 C 138.405 162.325,138.996 161.690,139.408 160.661 C 139.737 159.840,140.559 158.811,141.235 158.375 C 141.911 157.939,142.756 157.047,143.113 156.392 C 143.469 155.738,144.392 154.902,145.162 154.534 C 145.995 154.136,146.765 153.378,147.060 152.666 C 147.333 152.007,148.162 151.005,148.902 150.441 C 150.910 148.910,150.699 142.716,148.640 142.716 C 148.434 142.716,147.903 142.353,147.460 141.910 C 147.017 141.467,146.112 140.996,145.447 140.863 C 144.701 140.714,144.111 140.284,143.903 139.739 C 143.516 138.720,141.680 137.166,140.865 137.166 C 140.560 137.166,139.935 136.530,139.477 135.753 C 138.962 134.880,138.079 134.115,137.166 133.750 C 136.341 133.420,135.488 132.721,135.236 132.168 C 134.988 131.623,134.206 130.935,133.498 130.639 C 132.789 130.343,131.318 129.256,130.228 128.225 C 129.138 127.193,127.581 125.929,126.769 125.416 C 125.957 124.902,125.010 124.051,124.664 123.524 C 124.319 122.996,123.340 122.286,122.489 121.946 C 121.560 121.574,120.704 120.868,120.347 120.177 C 119.997 119.500,119.136 118.780,118.251 118.424 C 117.425 118.092,116.349 117.276,115.860 116.611 C 115.371 115.946,114.342 115.103,113.573 114.738 C 112.804 114.373,111.822 113.579,111.390 112.973 C 110.959 112.368,109.669 111.247,108.524 110.482 C 107.379 109.718,105.922 108.545,105.286 107.876 C 104.651 107.206,103.575 106.475,102.895 106.251 C 102.100 105.988,101.506 105.438,101.231 104.709 C 100.926 103.902,100.302 103.385,99.061 102.911 C 97.977 102.497,97.069 101.810,96.656 101.090 C 96.291 100.455,95.401 99.678,94.676 99.364 C 93.952 99.050,92.482 97.973,91.410 96.970 C 90.337 95.967,88.865 94.932,88.139 94.669 C 87.413 94.406,86.819 94.063,86.819 93.905 C 86.819 93.165,84.688 91.210,83.628 90.977 C 82.774 90.789,82.284 90.342,81.885 89.385 C 81.444 88.330,80.988 87.963,79.681 87.611 C 78.567 87.311,77.827 86.809,77.398 86.061 C 77.042 85.442,75.892 84.542,74.784 84.015 C 73.695 83.498,72.144 82.388,71.336 81.547 C 70.528 80.706,69.207 79.791,68.399 79.514 C 67.572 79.229,66.730 78.594,66.469 78.058 C 66.208 77.522,65.099 76.684,63.928 76.140 C 62.785 75.608,61.751 74.863,61.631 74.484 C 61.365 73.647,59.260 72.359,57.102 71.712 C 56.169 71.433,55.417 70.926,55.276 70.482 C 55.144 70.067,54.383 69.445,53.584 69.100 C 49.823 67.477,49.681 67.334,50.113 65.609 C 50.395 64.488,51.818 64.291,54.314 65.026 C 55.076 65.251,58.196 65.604,61.249 65.812 C 80.025 67.088,82.831 67.360,83.802 67.996 C 85.404 69.046,88.446 69.671,95.464 70.393 C 100.964 70.959,102.315 71.227,103.469 71.979 C 105.263 73.151,108.291 73.969,112.981 74.551 C 115.881 74.911,116.993 75.227,117.827 75.929 C 118.972 76.892,122.602 77.863,126.799 78.327 C 128.666 78.533,129.586 78.855,130.363 79.575 C 131.826 80.931,133.486 81.546,137.220 82.118 C 139.637 82.488,140.658 82.836,141.284 83.504 C 142.326 84.614,143.667 85.125,147.434 85.846 C 149.451 86.232,150.715 86.713,151.410 87.359 C 152.795 88.649,153.522 88.959,157.073 89.772 C 159.222 90.265,160.198 90.678,160.351 91.162 C 160.620 92.008,161.536 92.431,165.114 93.362 C 167.114 93.882,168.136 94.385,168.774 95.163 C 169.432 95.965,170.490 96.467,172.892 97.115 C 175.309 97.767,176.360 98.267,177.059 99.097 C 177.716 99.879,178.778 100.420,180.638 100.924 C 182.428 101.408,183.595 101.991,184.250 102.726 C 187.156 105.987,195.821 105.965,196.961 102.694 C 197.258 101.843,197.834 101.316,198.959 100.866 C 200.066 100.423,200.660 99.886,200.944 99.074 C 201.192 98.361,201.776 97.762,202.458 97.520 C 204.212 96.898,204.689 96.538,205.358 95.330 C 205.703 94.708,206.422 94.081,206.957 93.937 C 208.127 93.621,210.240 92.184,211.978 90.521 C 212.679 89.851,213.791 89.194,214.450 89.062 C 215.316 88.889,215.791 88.471,216.166 87.553 C 216.587 86.520,217.014 86.203,218.451 85.857 C 219.972 85.490,220.280 85.239,220.664 84.051 C 221.028 82.926,221.367 82.618,222.496 82.383 C 224.321 82.004,226.667 80.597,226.947 79.714 C 227.208 78.893,228.769 78.097,230.119 78.097 C 231.316 78.097,232.309 77.118,232.309 75.939 C 232.309 75.182,232.578 74.984,233.889 74.774 C 235.571 74.505,238.256 73.370,238.256 72.928 C 238.256 71.940,240.324 70.565,241.809 70.565 C 243.410 70.565,243.530 70.485,245.281 68.253 C 245.834 67.548,246.571 67.261,248.375 67.049 C 251.370 66.696,251.734 66.457,251.734 64.848 C 251.734 63.429,252.971 63.046,257.576 63.036 C 259.112 63.033,259.304 62.917,259.822 61.677 C 260.566 59.896,261.475 59.465,264.480 59.465 C 266.898 59.465,267.022 59.413,268.780 57.682 C 270.478 56.009,270.775 55.876,273.600 55.518 C 275.869 55.230,277.362 54.741,279.653 53.534 C 282.686 51.937,282.706 51.933,287.175 51.933 C 292.142 51.933,297.709 50.808,301.691 49.001 C 303.962 47.970,306.606 47.668,307.052 48.389 M49.158 63.826 C 48.389 64.322,47.968 64.322,47.968 63.826 C 47.968 63.608,48.370 63.432,48.860 63.435 C 49.582 63.440,49.638 63.515,49.158 63.826 M236.130 98.513 C 236.256 98.840,236.496 99.108,236.664 99.108 C 236.832 99.108,237.191 98.840,237.463 98.513 C 237.880 98.011,237.797 97.919,236.929 97.919 C 236.179 97.919,235.964 98.079,236.130 98.513 M228.741 102.478 C 228.741 103.218,229.115 103.214,230.106 102.465 C 230.844 101.907,230.831 101.883,229.808 101.883 C 229.124 101.883,228.741 102.096,228.741 102.478 M224.182 105.817 C 223.414 106.117,223.417 106.135,224.278 106.409 C 225.267 106.723,226.103 106.389,225.751 105.820 C 225.487 105.393,225.268 105.392,224.182 105.817 M216.452 109.987 C 216.452 110.831,217.121 111.095,218.029 110.609 C 219.195 109.985,219.010 109.415,217.641 109.415 C 216.870 109.415,216.452 109.616,216.452 109.987 M208.823 113.991 C 209.603 114.537,209.814 114.539,210.795 114.007 L 211.893 113.411 209.922 113.395 C 208.034 113.380,207.987 113.405,208.823 113.991 " stroke="none" fill="#139485" fillRule="evenodd"/>
    </g>
</svg>
